<svg id="kity_svg_6" xmlns="http://www.w3.org/2000/svg" xmlns:xlink="http://www.w3.org/1999/xlink" version="1.1" width="1329" height="540" style="background: rgb(251, 251, 251); visibility: visible;" viewBox="0 0 1329 540"><defs id="kity_defs_7"><linearGradient id="kity_linearGradient_17" x1="0" y1="0" x2="0" y2="1"><stop id="kity_stop_18" offset="0" stop-color="rgb(255, 255, 255)"></stop><stop id="kity_stop_19" offset="1" stop-color="rgb(204, 204, 204)"></stop></linearGradient><marker id="kity_marker_2" orient="auto" refX="6" refY="0" viewBox="-7 -7 14 14" markerWidth="7" markerHeight="7" markerUnits="userSpaceOnUse"><path id="kity_path_3" fill="rgb(191, 115, 148)" stroke="none" d="M6,0A6,6,0,1,1,-6,0A6,6,0,1,1,6,0"></path></marker></defs><g id="kity_g_8"><g id="minder1" text-rendering="optimize-speed"><g id="minder_connect_group1"><path id="kity_path_31" fill="none" stroke="rgb(191, 115, 148)" stroke-width="1" d="M86.5,211.5A184,128,0,0,1,270.5,83.5"></path><path id="kity_path_33" fill="none" stroke="rgb(191, 115, 148)" stroke-width="1" d="M340.5,83.5C360.5,83.5,360.5,31.5,380.5,31.5"></path><path id="kity_path_35" fill="none" stroke="rgb(191, 115, 148)" stroke-width="1" d="M437.5,31.5C457.5,31.5,457.5,31.5,477.5,31.5"></path><path id="kity_path_37" fill="none" stroke="rgb(191, 115, 148)" stroke-width="1" d="M340.5,83.5C360.5,83.5,360.5,83.5,380.5,83.5"></path><path id="kity_path_39" fill="none" stroke="rgb(191, 115, 148)" stroke-width="1" d="M496.5,83.5C516.5,83.5,516.5,83.5,536.5,83.5"></path><path id="kity_path_41" fill="none" stroke="rgb(191, 115, 148)" stroke-width="1" d="M340.5,83.5C360.5,83.5,360.5,135.5,380.5,135.5"></path><path id="kity_path_43" fill="none" stroke="rgb(191, 115, 148)" stroke-width="1" d="M428.5,135.5C448.5,135.5,448.5,135.5,468.5,135.5"></path><path id="kity_path_45" fill="none" stroke="rgb(191, 115, 148)" stroke-width="1" d="M86.5,211.5A184,129,0,0,0,270.5,340.5"></path><path id="kity_path_47" fill="none" stroke="rgb(191, 115, 148)" stroke-width="1" d="M340.5,340.5C360.5,340.5,360.5,197.5,380.5,197.5"></path><path id="kity_path_49" fill="none" stroke="rgb(191, 115, 148)" stroke-width="1" d="M435.5,197.5C455.5,197.5,455.5,197.5,475.5,197.5"></path><path id="kity_path_51" fill="none" stroke="rgb(191, 115, 148)" stroke-width="1" d="M340.5,340.5C360.5,340.5,360.5,249.5,380.5,249.5"></path><path id="kity_path_53" fill="none" stroke="rgb(191, 115, 148)" stroke-width="1" d="M453.5,249.5C473.5,249.5,473.5,249.5,493.5,249.5"></path><path id="kity_path_55" fill="none" stroke="rgb(191, 115, 148)" stroke-width="1" d="M340.5,340.5C360.5,340.5,360.5,301.5,380.5,301.5"></path><path id="kity_path_57" fill="none" stroke="rgb(191, 115, 148)" stroke-width="1" d="M449.5,301.5C469.5,301.5,469.5,301.5,489.5,301.5"></path><path id="kity_path_59" fill="none" stroke="rgb(191, 115, 148)" stroke-width="1" d="M340.5,340.5C360.5,340.5,360.5,353.5,380.5,353.5"></path><path id="kity_path_61" fill="none" stroke="rgb(191, 115, 148)" stroke-width="1" d="M465.5,353.5C485.5,353.5,485.5,353.5,505.5,353.5"></path><path id="kity_path_63" fill="none" stroke="rgb(191, 115, 148)" stroke-width="1" d="M340.5,340.5C360.5,340.5,360.5,405.5,380.5,405.5"></path><path id="kity_path_65" fill="none" stroke="rgb(191, 115, 148)" stroke-width="1" d="M479.5,405.5C499.5,405.5,499.5,405.5,519.5,405.5"></path><path id="kity_path_67" fill="none" stroke="rgb(191, 115, 148)" stroke-width="1" d="M340.5,340.5C360.5,340.5,360.5,483.5,380.5,483.5"></path><path id="kity_path_69" fill="none" stroke="rgb(191, 115, 148)" stroke-width="1" d="M532.5,483.5C552.5,483.5,552.5,457.5,572.5,457.5"></path><path id="kity_path_71" fill="none" stroke="rgb(191, 115, 148)" stroke-width="1" d="M532.5,483.5C552.5,483.5,552.5,509.5,572.5,509.5"></path></g><g id="minder_node1"><path id="node_outline1" fill="rgb(191, 115, 148)" stroke="rgb(191, 115, 148)" d="M25.5,191.5h122a5,5,0,0,1,5,5v30a5,5,0,0,1,-5,5h-122a5,5,0,0,1,-5,-5v-30a5,5,0,0,1,5,-5z" stroke-width="3"></path><g id="node_text1" fill="white"><text id="kity_text_22" text-rendering="inherit" font-size="16" dy=".8em" y="201.09999990463257" x="44.5">history对象</text></g></g><g id="kity_g_12"><path id="kity_path_13" fill="none" stroke="none" d="M44.5,211.5h0v0h0z"></path></g><g id="kity_g_14"><path id="kity_path_15" fill="none" stroke="none" d="M44.5,211.5h0v0h0z"></path><path id="kity_path_16" fill="none" stroke="none"></path></g><g id="minder_node2"><g id="node_expander7" style="cursor: pointer;"><path id="kity_path_154" fill="white" stroke="gray" d="M271.5,83.5A6,6,0,1,1,259.5,83.5A6,6,0,1,1,271.5,83.5"></path><path id="kity_path_155" fill="none" stroke="gray" d="M261,83.5L270,83.5"></path></g><path id="node_outline8" fill="rgb(246, 238, 242)" stroke="rgb(191, 115, 148)" d="M275.5,70.5h62a3,3,0,0,1,3,3v20a3,3,0,0,1,-3,3h-62a3,3,0,0,1,-3,-3v-20a3,3,0,0,1,3,-3z" stroke-width="1"></path><g id="node_text8" fill="black"><text id="kity_text_85" text-rendering="inherit" font-size="14" dy=".8em" y="74.40000009536743" x="292.5">属性</text></g></g><g id="minder_node3"><g id="node_expander2" style="cursor: pointer;"><path id="kity_path_139" fill="white" stroke="gray" d="M380.5,31.5A6,6,0,1,1,368.5,31.5A6,6,0,1,1,380.5,31.5"></path><path id="kity_path_140" fill="none" stroke="gray" d="M370,31.5L379,31.5"></path></g><path id="node_outline3" fill="none" stroke="none" d="M385.5,20.5h47a5,5,0,0,1,5,5v12a5,5,0,0,1,-5,5h-47a5,5,0,0,1,-5,-5v-12a5,5,0,0,1,5,-5z"></path><g id="node_text3" fill="black"><text id="kity_text_75" text-rendering="inherit" font-size="12" dy=".8em" y="23.700000047683716" x="390.5">length</text></g></g><g id="minder_node4"><g id="node_expander1" style="cursor: pointer;" display="none"><path id="kity_path_136" fill="white" stroke="gray" d="M477.5,31.5A6,6,0,1,1,465.5,31.5A6,6,0,1,1,477.5,31.5"></path><path id="kity_path_137" fill="none" stroke="gray"></path></g><path id="node_outline2" fill="none" stroke="none" d="M482.5,20.5h394a5,5,0,0,1,5,5v12a5,5,0,0,1,-5,5h-394a5,5,0,0,1,-5,-5v-12a5,5,0,0,1,5,-5z"></path><g id="node_text2" fill="black"><text id="kity_text_73" text-rendering="inherit" font-size="12" dy=".8em" y="23.700000047683716" x="487.5">返回一个整数，该整数表示会话历史中元素的数目，包括当前加载的页。</text></g></g><g id="minder_node5"><g id="node_expander4" style="cursor: pointer;"><path id="kity_path_145" fill="white" stroke="gray" d="M380.5,83.5A6,6,0,1,1,368.5,83.5A6,6,0,1,1,380.5,83.5"></path><path id="kity_path_146" fill="none" stroke="gray" d="M370,83.5L379,83.5"></path></g><path id="node_outline5" fill="none" stroke="none" d="M385.5,72.5h106a5,5,0,0,1,5,5v12a5,5,0,0,1,-5,5h-106a5,5,0,0,1,-5,-5v-12a5,5,0,0,1,5,-5z" stroke-width="3"></path><g id="node_text5" fill="black"><text id="kity_text_79" text-rendering="inherit" font-size="12" dy=".8em" y="75.70000004768372" x="390.5">scrollRestoration </text></g></g><g id="minder_node6"><g id="node_expander3" style="cursor: pointer;" display="none"><path id="kity_path_142" fill="white" stroke="gray" d="M536.5,83.5A6,6,0,1,1,524.5,83.5A6,6,0,1,1,536.5,83.5"></path><path id="kity_path_143" fill="none" stroke="gray"></path></g><path id="node_outline4" fill="none" stroke="none" d="M541.5,72.5h349a5,5,0,0,1,5,5v12a5,5,0,0,1,-5,5h-349a5,5,0,0,1,-5,-5v-12a5,5,0,0,1,5,-5z" stroke-width="3"></path><g id="node_text4" fill="black"><text id="kity_text_77" text-rendering="inherit" font-size="12" dy=".8em" y="75.70000004768372" x="546.5">允许Web应用程序在历史导航上显式地设置默认滚动恢复行为。</text></g></g><g id="minder_node7"><g id="node_expander6" style="cursor: pointer;"><path id="kity_path_151" fill="white" stroke="gray" d="M380.5,135.5A6,6,0,1,1,368.5,135.5A6,6,0,1,1,380.5,135.5"></path><path id="kity_path_152" fill="none" stroke="gray" d="M370,135.5L379,135.5"></path></g><path id="node_outline7" fill="none" stroke="none" d="M385.5,124.5h38a5,5,0,0,1,5,5v12a5,5,0,0,1,-5,5h-38a5,5,0,0,1,-5,-5v-12a5,5,0,0,1,5,-5z"></path><g id="node_text7" fill="black"><text id="kity_text_83" text-rendering="inherit" font-size="12" dy=".8em" y="127.70000004768372" x="390.5">state</text></g></g><g id="minder_node8"><g id="node_expander5" style="cursor: pointer;" display="none"><path id="kity_path_148" fill="white" stroke="gray" d="M468.5,135.5A6,6,0,1,1,456.5,135.5A6,6,0,1,1,468.5,135.5"></path><path id="kity_path_149" fill="none" stroke="gray"></path></g><path id="node_outline6" fill="none" stroke="none" d="M473.5,124.5h544a5,5,0,0,1,5,5v12a5,5,0,0,1,-5,5h-544a5,5,0,0,1,-5,-5v-12a5,5,0,0,1,5,-5z" stroke-width="3"></path><g id="node_text6" fill="black"><text id="kity_text_81" text-rendering="inherit" font-size="12" dy=".8em" y="127.70000004768372" x="478.5">返回一个表示历史堆栈顶部的状态的值。这是一种可以不必等待popstate 事件而查看状态而的方式。</text></g></g><g id="minder_node9"><g id="node_expander21" style="cursor: pointer;"><path id="kity_path_196" fill="white" stroke="gray" d="M271.5,340.5A6,6,0,1,1,259.5,340.5A6,6,0,1,1,271.5,340.5"></path><path id="kity_path_197" fill="none" stroke="gray" d="M261,340.5L270,340.5"></path></g><path id="node_outline22" fill="rgb(246, 238, 242)" stroke="rgb(191, 115, 148)" d="M275.5,327.5h62a3,3,0,0,1,3,3v20a3,3,0,0,1,-3,3h-62a3,3,0,0,1,-3,-3v-20a3,3,0,0,1,3,-3z" stroke-width="1"></path><g id="node_text22" fill="black"><text id="kity_text_113" text-rendering="inherit" font-size="14" dy=".8em" y="331.40000009536743" x="292.5">方法</text></g></g><g id="minder_node10"><g id="node_expander9" style="cursor: pointer;"><path id="kity_path_160" fill="white" stroke="gray" d="M380.5,197.5A6,6,0,1,1,368.5,197.5A6,6,0,1,1,380.5,197.5"></path><path id="kity_path_161" fill="none" stroke="gray" d="M370,197.5L379,197.5"></path></g><path id="node_outline10" fill="#ff0000" stroke="none" d="M385.5,186.5h45a5,5,0,0,1,5,5v12a5,5,0,0,1,-5,5h-45a5,5,0,0,1,-5,-5v-12a5,5,0,0,1,5,-5z" stroke-width="3"></path><g id="node_text10" fill="black"><text id="kity_text_89" text-rendering="inherit" font-size="12" dy=".8em" y="189.70000004768372" x="390.5">back()</text></g></g><g id="minder_node11"><g id="node_expander8" style="cursor: pointer;" display="none"><path id="kity_path_157" fill="white" stroke="gray" d="M475.5,197.5A6,6,0,1,1,463.5,197.5A6,6,0,1,1,475.5,197.5"></path><path id="kity_path_158" fill="none" stroke="gray"></path></g><path id="node_outline9" fill="none" stroke="none" d="M480.5,186.5h464a5,5,0,0,1,5,5v12a5,5,0,0,1,-5,5h-464a5,5,0,0,1,-5,-5v-12a5,5,0,0,1,5,-5z"></path><g id="node_text9" fill="black"><text id="kity_text_87" text-rendering="inherit" font-size="12" dy=".8em" y="189.70000004768372" x="485.5">前往上一页, 用户可点击浏览器左上角的返回按钮模拟此方法. 等价于 history.go(-1)。</text></g></g><g id="minder_node12"><g id="node_expander11" style="cursor: pointer;"><path id="kity_path_166" fill="white" stroke="gray" d="M380.5,249.5A6,6,0,1,1,368.5,249.5A6,6,0,1,1,380.5,249.5"></path><path id="kity_path_167" fill="none" stroke="gray" d="M370,249.5L379,249.5"></path></g><path id="node_outline12" fill="#ff0000" stroke="none" d="M385.5,238.5h63a5,5,0,0,1,5,5v12a5,5,0,0,1,-5,5h-63a5,5,0,0,1,-5,-5v-12a5,5,0,0,1,5,-5z" stroke-width="3"></path><g id="node_text12" fill="black"><text id="kity_text_93" text-rendering="inherit" font-size="12" dy=".8em" y="241.70000004768372" x="390.5">forward()</text></g></g><g id="minder_node13"><g id="node_expander10" style="cursor: pointer;" display="none"><path id="kity_path_163" fill="white" stroke="gray" d="M493.5,249.5A6,6,0,1,1,481.5,249.5A6,6,0,1,1,493.5,249.5"></path><path id="kity_path_164" fill="none" stroke="gray"></path></g><path id="node_outline11" fill="none" stroke="none" d="M498.5,238.5h563a5,5,0,0,1,5,5v12a5,5,0,0,1,-5,5h-563a5,5,0,0,1,-5,-5v-12a5,5,0,0,1,5,-5z"></path><g id="node_text11" fill="black"><text id="kity_text_91" text-rendering="inherit" font-size="12" dy=".8em" y="241.70000004768372" x="503.5">在浏览器历史记录里前往下一页，用户可点击浏览器左上角的前进按钮模拟此方法. 等价于 history.go(1).</text></g></g><g id="minder_node14"><g id="node_expander13" style="cursor: pointer;"><path id="kity_path_172" fill="white" stroke="gray" d="M380.5,301.5A6,6,0,1,1,368.5,301.5A6,6,0,1,1,380.5,301.5"></path><path id="kity_path_173" fill="none" stroke="gray" d="M370,301.5L379,301.5"></path></g><path id="node_outline14" fill="#ff0000" stroke="none" d="M385.5,290.5h59a5,5,0,0,1,5,5v12a5,5,0,0,1,-5,5h-59a5,5,0,0,1,-5,-5v-12a5,5,0,0,1,5,-5z" stroke-width="3"></path><g id="node_text14" fill="black"><text id="kity_text_97" text-rendering="inherit" font-size="12" dy=".8em" y="293.7000000476837" x="390.5">go(num)</text></g></g><g id="minder_node15"><g id="node_expander12" style="cursor: pointer;" display="none"><path id="kity_path_169" fill="white" stroke="gray" d="M489.5,301.5A6,6,0,1,1,477.5,301.5A6,6,0,1,1,489.5,301.5"></path><path id="kity_path_170" fill="none" stroke="gray"></path></g><path id="node_outline13" fill="none" stroke="none" d="M494.5,290.5h361a5,5,0,0,1,5,5v12a5,5,0,0,1,-5,5h-361a5,5,0,0,1,-5,-5v-12a5,5,0,0,1,5,-5z"></path><g id="node_text13" fill="black"><text id="kity_text_95" text-rendering="inherit" font-size="12" dy=".8em" y="293.7000000476837" x="499.5">通过当前页面的相对位置从浏览器历史记录( 会话记录 )加载页面。</text></g></g><g id="minder_node16"><g id="node_expander15" style="cursor: pointer;"><path id="kity_path_178" fill="white" stroke="gray" d="M380.5,353.5A6,6,0,1,1,368.5,353.5A6,6,0,1,1,380.5,353.5"></path><path id="kity_path_179" fill="none" stroke="gray" d="M370,353.5L379,353.5"></path></g><path id="node_outline16" fill="#ff0000" stroke="none" d="M385.5,342.5h75a5,5,0,0,1,5,5v12a5,5,0,0,1,-5,5h-75a5,5,0,0,1,-5,-5v-12a5,5,0,0,1,5,-5z" stroke-width="3"></path><g id="node_text16" fill="black"><text id="kity_text_101" text-rendering="inherit" font-size="12" dy=".8em" y="345.7000000476837" x="390.5">pushState()</text></g></g><g id="minder_node17"><g id="node_expander14" style="cursor: pointer;" display="none"><path id="kity_path_175" fill="white" stroke="gray" d="M505.5,353.5A6,6,0,1,1,493.5,353.5A6,6,0,1,1,505.5,353.5"></path><path id="kity_path_176" fill="none" stroke="gray"></path></g><path id="node_outline15" fill="none" stroke="none" d="M510.5,342.5h794a5,5,0,0,1,5,5v12a5,5,0,0,1,-5,5h-794a5,5,0,0,1,-5,-5v-12a5,5,0,0,1,5,-5z"></path><g id="node_text15" fill="black"><text id="kity_text_99" text-rendering="inherit" font-size="12" dy=".8em" y="345.7000000476837" x="515.5">按指定的名称和URL（如果提供该参数）将数据push进会话历史栈，数据被DOM进行不透明处理；你可以指定任何可以被序列化的javascript对象。</text></g></g><g id="minder_node18"><g id="node_expander17" style="cursor: pointer;"><path id="kity_path_184" fill="white" stroke="gray" d="M380.5,405.5A6,6,0,1,1,368.5,405.5A6,6,0,1,1,380.5,405.5"></path><path id="kity_path_185" fill="none" stroke="gray" d="M370,405.5L379,405.5"></path></g><path id="node_outline18" fill="#ff0000" stroke="none" d="M385.5,394.5h89a5,5,0,0,1,5,5v12a5,5,0,0,1,-5,5h-89a5,5,0,0,1,-5,-5v-12a5,5,0,0,1,5,-5z" stroke-width="3"></path><g id="node_text18" fill="black"><text id="kity_text_105" text-rendering="inherit" font-size="12" dy=".8em" y="397.7000000476837" x="390.5">replaceState()</text></g></g><g id="minder_node19"><g id="node_expander16" style="cursor: pointer;" display="none"><path id="kity_path_181" fill="white" stroke="gray" d="M519.5,405.5A6,6,0,1,1,507.5,405.5A6,6,0,1,1,519.5,405.5"></path><path id="kity_path_182" fill="none" stroke="gray"></path></g><path id="node_outline17" fill="none" stroke="none" d="M524.5,394.5h401a5,5,0,0,1,5,5v12a5,5,0,0,1,-5,5h-401a5,5,0,0,1,-5,-5v-12a5,5,0,0,1,5,-5z"></path><g id="node_text17" fill="black"><text id="kity_text_103" text-rendering="inherit" font-size="12" dy=".8em" y="397.7000000476837" x="529.5">按指定的数据，名称和URL(如果提供该参数)，更新历史栈上最新的入口。</text></g></g><g id="minder_node20"><g id="node_expander20" style="cursor: pointer;"><path id="kity_path_193" fill="white" stroke="gray" d="M380.5,483.5A6,6,0,1,1,368.5,483.5A6,6,0,1,1,380.5,483.5"></path><path id="kity_path_194" fill="none" stroke="gray" d="M370,483.5L379,483.5"></path></g><path id="node_outline21" fill="#ff0000" stroke="rgb(96, 57, 74)" d="M385.5,472.5h142a5,5,0,0,1,5,5v12a5,5,0,0,1,-5,5h-142a5,5,0,0,1,-5,-5v-12a5,5,0,0,1,5,-5z" stroke-width="3"></path><g id="node_text21" fill="black"><text id="kity_text_111" text-rendering="inherit" font-size="12" dy=".8em" y="475.7000000476837" x="390.5">前端路由，两种实现方案</text></g></g><g id="minder_node21"><g id="node_expander18" style="cursor: pointer;" display="none"><path id="kity_path_187" fill="white" stroke="gray" d="M572.5,457.5A6,6,0,1,1,560.5,457.5A6,6,0,1,1,572.5,457.5"></path><path id="kity_path_188" fill="none" stroke="gray"></path></g><path id="node_outline19" fill="none" stroke="none" d="M577.5,446.5h237a5,5,0,0,1,5,5v12a5,5,0,0,1,-5,5h-237a5,5,0,0,1,-5,-5v-12a5,5,0,0,1,5,-5z"></path><g id="node_text19" fill="black"><text id="kity_text_107" text-rendering="inherit" font-size="12" dy=".8em" y="449.7000000476837" x="582.5">hashchange事件--location.hash来触发；</text></g></g><g id="minder_node22"><g id="node_expander19" style="cursor: pointer;" display="none"><path id="kity_path_190" fill="white" stroke="gray" d="M572.5,509.5A6,6,0,1,1,560.5,509.5A6,6,0,1,1,572.5,509.5"></path><path id="kity_path_191" fill="none" stroke="gray"></path></g><path id="node_outline20" fill="none" stroke="none" d="M577.5,498.5h272a5,5,0,0,1,5,5v12a5,5,0,0,1,-5,5h-272a5,5,0,0,1,-5,-5v-12a5,5,0,0,1,5,-5z"></path><g id="node_text20" fill="black"><text id="kity_text_109" text-rendering="inherit" font-size="12" dy=".8em" y="501.7000000476837" x="582.5">popstate事件--pushState或replaceState触发。</text></g></g></g></g></svg>