<svg id="kity_svg_6" xmlns="http://www.w3.org/2000/svg" xmlns:xlink="http://www.w3.org/1999/xlink" version="1.1" width="1221" height="1112" style="background: rgb(251, 251, 251); visibility: visible;" viewBox="0 0 1221 1112"><defs id="kity_defs_7"><linearGradient id="kity_linearGradient_17" x1="0" y1="0" x2="0" y2="1"><stop id="kity_stop_18" offset="0" stop-color="rgb(255, 255, 255)"></stop><stop id="kity_stop_19" offset="1" stop-color="rgb(204, 204, 204)"></stop></linearGradient><marker id="kity_marker_2" orient="auto" refX="6" refY="0" viewBox="-7 -7 14 14" markerWidth="7" markerHeight="7" markerUnits="userSpaceOnUse"><path id="kity_path_3" fill="rgb(123, 115, 191)" stroke="none" d="M6,0A6,6,0,1,1,-6,0A6,6,0,1,1,6,0"></path></marker></defs><g id="kity_g_8"><g id="minder1" text-rendering="optimize-speed"><g id="minder_connect_group1"><path id="kity_path_31" fill="none" stroke="rgb(123, 115, 191)" stroke-width="1" d="M97,725.5A194.5,278,0,0,1,291.5,447.5"></path><path id="kity_path_33" fill="none" stroke="rgb(123, 115, 191)" stroke-width="1" d="M361.5,447.5C381.5,447.5,381.5,31.5,401.5,31.5"></path><path id="kity_path_35" fill="none" stroke="rgb(123, 115, 191)" stroke-width="1" d="M566.5,31.5C586.5,31.5,586.5,31.5,606.5,31.5"></path><path id="kity_path_37" fill="none" stroke="rgb(123, 115, 191)" stroke-width="1" d="M361.5,447.5C381.5,447.5,381.5,83.5,401.5,83.5"></path><path id="kity_path_39" fill="none" stroke="rgb(123, 115, 191)" stroke-width="1" d="M556.5,83.5C576.5,83.5,576.5,83.5,596.5,83.5"></path><path id="kity_path_41" fill="none" stroke="rgb(123, 115, 191)" stroke-width="1" d="M361.5,447.5C381.5,447.5,381.5,135.5,401.5,135.5"></path><path id="kity_path_43" fill="none" stroke="rgb(123, 115, 191)" stroke-width="1" d="M525.5,135.5C545.5,135.5,545.5,135.5,565.5,135.5"></path><path id="kity_path_45" fill="none" stroke="rgb(123, 115, 191)" stroke-width="1" d="M361.5,447.5C381.5,447.5,381.5,187.5,401.5,187.5"></path><path id="kity_path_47" fill="none" stroke="rgb(123, 115, 191)" stroke-width="1" d="M534.5,187.5C554.5,187.5,554.5,187.5,574.5,187.5"></path><path id="kity_path_49" fill="none" stroke="rgb(123, 115, 191)" stroke-width="1" d="M361.5,447.5C381.5,447.5,381.5,239.5,401.5,239.5"></path><path id="kity_path_51" fill="none" stroke="rgb(123, 115, 191)" stroke-width="1" d="M510.5,239.5C530.5,239.5,530.5,239.5,550.5,239.5"></path><path id="kity_path_53" fill="none" stroke="rgb(123, 115, 191)" stroke-width="1" d="M361.5,447.5C381.5,447.5,381.5,291.5,401.5,291.5"></path><path id="kity_path_55" fill="none" stroke="rgb(123, 115, 191)" stroke-width="1" d="M533.5,291.5C553.5,291.5,553.5,291.5,573.5,291.5"></path><path id="kity_path_57" fill="none" stroke="rgb(123, 115, 191)" stroke-width="1" d="M361.5,447.5C381.5,447.5,381.5,343.5,401.5,343.5"></path><path id="kity_path_59" fill="none" stroke="rgb(123, 115, 191)" stroke-width="1" d="M537.5,343.5C557.5,343.5,557.5,343.5,577.5,343.5"></path><path id="kity_path_61" fill="none" stroke="rgb(123, 115, 191)" stroke-width="1" d="M361.5,447.5C381.5,447.5,381.5,395.5,401.5,395.5"></path><path id="kity_path_63" fill="none" stroke="rgb(123, 115, 191)" stroke-width="1" d="M539.5,395.5C559.5,395.5,559.5,395.5,579.5,395.5"></path><path id="kity_path_65" fill="none" stroke="rgb(123, 115, 191)" stroke-width="1" d="M361.5,447.5C381.5,447.5,381.5,447.5,401.5,447.5"></path><path id="kity_path_67" fill="none" stroke="rgb(123, 115, 191)" stroke-width="1" d="M522.5,447.5C542.5,447.5,542.5,447.5,562.5,447.5"></path><path id="kity_path_69" fill="none" stroke="rgb(123, 115, 191)" stroke-width="1" d="M361.5,447.5C381.5,447.5,381.5,499.5,401.5,499.5"></path><path id="kity_path_71" fill="none" stroke="rgb(123, 115, 191)" stroke-width="1" d="M528.5,499.5C548.5,499.5,548.5,499.5,568.5,499.5"></path><path id="kity_path_73" fill="none" stroke="rgb(123, 115, 191)" stroke-width="1" d="M361.5,447.5C381.5,447.5,381.5,551.5,401.5,551.5"></path><path id="kity_path_75" fill="none" stroke="rgb(123, 115, 191)" stroke-width="1" d="M535.5,551.5C555.5,551.5,555.5,551.5,575.5,551.5"></path><path id="kity_path_77" fill="none" stroke="rgb(123, 115, 191)" stroke-width="1" d="M361.5,447.5C381.5,447.5,381.5,603.5,401.5,603.5"></path><path id="kity_path_79" fill="none" stroke="rgb(123, 115, 191)" stroke-width="1" d="M508.5,603.5C528.5,603.5,528.5,603.5,548.5,603.5"></path><path id="kity_path_81" fill="none" stroke="rgb(123, 115, 191)" stroke-width="1" d="M361.5,447.5C381.5,447.5,381.5,655.5,401.5,655.5"></path><path id="kity_path_83" fill="none" stroke="rgb(123, 115, 191)" stroke-width="1" d="M503.5,655.5C523.5,655.5,523.5,655.5,543.5,655.5"></path><path id="kity_path_85" fill="none" stroke="rgb(123, 115, 191)" stroke-width="1" d="M361.5,447.5C381.5,447.5,381.5,707.5,401.5,707.5"></path><path id="kity_path_87" fill="none" stroke="rgb(123, 115, 191)" stroke-width="1" d="M519.5,707.5C539.5,707.5,539.5,707.5,559.5,707.5"></path><path id="kity_path_89" fill="none" stroke="rgb(123, 115, 191)" stroke-width="1" d="M361.5,447.5C381.5,447.5,381.5,759.5,401.5,759.5"></path><path id="kity_path_91" fill="none" stroke="rgb(123, 115, 191)" stroke-width="1" d="M511.5,759.5C531.5,759.5,531.5,759.5,551.5,759.5"></path><path id="kity_path_93" fill="none" stroke="rgb(123, 115, 191)" stroke-width="1" d="M361.5,447.5C381.5,447.5,381.5,811.5,401.5,811.5"></path><path id="kity_path_95" fill="none" stroke="rgb(123, 115, 191)" stroke-width="1" d="M514.5,811.5C534.5,811.5,534.5,811.5,554.5,811.5"></path><path id="kity_path_97" fill="none" stroke="rgb(123, 115, 191)" stroke-width="1" d="M361.5,447.5C381.5,447.5,381.5,863.5,401.5,863.5"></path><path id="kity_path_99" fill="none" stroke="rgb(123, 115, 191)" stroke-width="1" d="M528.5,863.5C548.5,863.5,548.5,863.5,568.5,863.5"></path><path id="kity_path_101" fill="none" stroke="rgb(123, 115, 191)" stroke-width="1" d="M97,725.5A194.5,278,0,0,0,291.5,1003.5"></path><path id="kity_path_103" fill="none" stroke="rgb(123, 115, 191)" stroke-width="1" d="M403.5,1003.5C423.5,1003.5,423.5,925.5,443.5,925.5"></path><path id="kity_path_105" fill="none" stroke="rgb(123, 115, 191)" stroke-width="1" d="M552.5,925.5C572.5,925.5,572.5,925.5,592.5,925.5"></path><path id="kity_path_107" fill="none" stroke="rgb(123, 115, 191)" stroke-width="1" d="M403.5,1003.5C423.5,1003.5,423.5,977.5,443.5,977.5"></path><path id="kity_path_109" fill="none" stroke="rgb(123, 115, 191)" stroke-width="1" d="M667.5,977.5C687.5,977.5,687.5,977.5,707.5,977.5"></path><path id="kity_path_111" fill="none" stroke="rgb(123, 115, 191)" stroke-width="1" d="M403.5,1003.5C423.5,1003.5,423.5,1029.5,443.5,1029.5"></path><path id="kity_path_113" fill="none" stroke="rgb(123, 115, 191)" stroke-width="1" d="M658.5,1029.5C678.5,1029.5,678.5,1029.5,698.5,1029.5"></path><path id="kity_path_115" fill="none" stroke="rgb(123, 115, 191)" stroke-width="1" d="M403.5,1003.5C423.5,1003.5,423.5,1081.5,443.5,1081.5"></path><path id="kity_path_117" fill="none" stroke="rgb(123, 115, 191)" stroke-width="1" d="M553.5,1081.5C573.5,1081.5,573.5,1081.5,593.5,1081.5"></path></g><g id="minder_node1"><path id="node_outline1" fill="rgb(123, 115, 191)" stroke="rgb(61, 57, 96)" d="M25.5,705.5h143a5,5,0,0,1,5,5v30a5,5,0,0,1,-5,5h-143a5,5,0,0,1,-5,-5v-30a5,5,0,0,1,5,-5z" stroke-width="3"></path><g id="node_text1" fill="white"><text id="kity_text_22" text-rendering="inherit" font-size="16" dy=".8em" y="715.0999999046326" x="44.5">navigator对象</text></g></g><g id="kity_g_12"><path id="kity_path_13" fill="none" stroke="none" d="M44.5,725.5h0v0h0z"></path></g><g id="kity_g_14"><path id="kity_path_15" fill="none" stroke="none" d="M44.5,725.5h0v0h0z"></path><path id="kity_path_16" fill="none" stroke="none"></path></g><g id="minder_node2"><g id="node_expander35" style="cursor: pointer;"><path id="kity_path_353" fill="white" stroke="gray" d="M292.5,447.5A6,6,0,1,1,280.5,447.5A6,6,0,1,1,292.5,447.5"></path><path id="kity_path_354" fill="none" stroke="gray" d="M282,447.5L291,447.5"></path></g><path id="node_outline36" fill="rgb(239, 238, 246)" stroke="rgb(123, 115, 191)" d="M296.5,434.5h62a3,3,0,0,1,3,3v20a3,3,0,0,1,-3,3h-62a3,3,0,0,1,-3,-3v-20a3,3,0,0,1,3,-3z" stroke-width="1"></path><g id="node_text36" fill="black"><text id="kity_text_187" text-rendering="inherit" font-size="14" dy=".8em" y="438.40000009536743" x="313.5">属性</text></g></g><g id="minder_node3"><g id="node_expander2" style="cursor: pointer;"><path id="kity_path_254" fill="white" stroke="gray" d="M401.5,31.5A6,6,0,1,1,389.5,31.5A6,6,0,1,1,401.5,31.5"></path><path id="kity_path_255" fill="none" stroke="gray" d="M391,31.5L400,31.5"></path></g><path id="node_outline3" fill="#ffffff" stroke="none" d="M406.5,20.5h155a5,5,0,0,1,5,5v12a5,5,0,0,1,-5,5h-155a5,5,0,0,1,-5,-5v-12a5,5,0,0,1,5,-5z"></path><g id="node_text3" fill="black"><text id="kity_text_121" text-rendering="inherit" font-size="12" dy=".8em" y="23.700000047683716" x="411.5">activeVRDisplays（只读）</text></g></g><g id="minder_node4"><g id="node_expander1" style="cursor: pointer;" display="none"><path id="kity_path_251" fill="white" stroke="gray" d="M606.5,31.5A6,6,0,1,1,594.5,31.5A6,6,0,1,1,606.5,31.5"></path><path id="kity_path_252" fill="none" stroke="gray"></path></g><path id="node_outline2" fill="none" stroke="none" d="M611.5,20.5h585a5,5,0,0,1,5,5v12a5,5,0,0,1,-5,5h-585a5,5,0,0,1,-5,-5v-12a5,5,0,0,1,5,-5z"></path><g id="node_text2" fill="black"><text id="kity_text_119" text-rendering="inherit" font-size="12" dy=".8em" y="23.700000047683716" x="616.5">筛选所有的VRDisplay 对象，把其中所有VRDisplay.ispresenting属性的值为true的对象以数组的形式返回。</text></g></g><g id="minder_node5"><g id="node_expander4" style="cursor: pointer;"><path id="kity_path_260" fill="white" stroke="gray" d="M401.5,83.5A6,6,0,1,1,389.5,83.5A6,6,0,1,1,401.5,83.5"></path><path id="kity_path_261" fill="none" stroke="gray" d="M391,83.5L400,83.5"></path></g><path id="node_outline5" fill="none" stroke="none" d="M406.5,72.5h145a5,5,0,0,1,5,5v12a5,5,0,0,1,-5,5h-145a5,5,0,0,1,-5,-5v-12a5,5,0,0,1,5,-5z"></path><g id="node_text5" fill="black"><text id="kity_text_125" text-rendering="inherit" font-size="12" dy=".8em" y="75.70000004768372" x="411.5">appCodeName（只读） </text></g></g><g id="minder_node6"><g id="node_expander3" style="cursor: pointer;" display="none"><path id="kity_path_257" fill="white" stroke="gray" d="M596.5,83.5A6,6,0,1,1,584.5,83.5A6,6,0,1,1,596.5,83.5"></path><path id="kity_path_258" fill="none" stroke="gray"></path></g><path id="node_outline4" fill="none" stroke="none" d="M601.5,72.5h238a5,5,0,0,1,5,5v12a5,5,0,0,1,-5,5h-238a5,5,0,0,1,-5,-5v-12a5,5,0,0,1,5,-5z"></path><g id="node_text4" fill="black"><text id="kity_text_123" text-rendering="inherit" font-size="12" dy=".8em" y="75.70000004768372" x="606.5">返回当前浏览器的内部“开发代号”名称。 </text></g></g><g id="minder_node7"><g id="node_expander6" style="cursor: pointer;"><path id="kity_path_266" fill="white" stroke="gray" d="M401.5,135.5A6,6,0,1,1,389.5,135.5A6,6,0,1,1,401.5,135.5"></path><path id="kity_path_267" fill="none" stroke="gray" d="M391,135.5L400,135.5"></path></g><path id="node_outline7" fill="none" stroke="none" d="M406.5,124.5h114a5,5,0,0,1,5,5v12a5,5,0,0,1,-5,5h-114a5,5,0,0,1,-5,-5v-12a5,5,0,0,1,5,-5z"></path><g id="node_text7" fill="black"><text id="kity_text_129" text-rendering="inherit" font-size="12" dy=".8em" y="127.70000004768372" x="411.5">appName（只读） </text></g></g><g id="minder_node8"><g id="node_expander5" style="cursor: pointer;" display="none"><path id="kity_path_263" fill="white" stroke="gray" d="M565.5,135.5A6,6,0,1,1,553.5,135.5A6,6,0,1,1,565.5,135.5"></path><path id="kity_path_264" fill="none" stroke="gray"></path></g><path id="node_outline6" fill="none" stroke="none" d="M570.5,124.5h250a5,5,0,0,1,5,5v12a5,5,0,0,1,-5,5h-250a5,5,0,0,1,-5,-5v-12a5,5,0,0,1,5,-5z"></path><g id="node_text6" fill="black"><text id="kity_text_127" text-rendering="inherit" font-size="12" dy=".8em" y="127.70000004768372" x="575.5">以 DOMString 的形式返回浏览器官方名称。</text></g></g><g id="minder_node9"><g id="node_expander8" style="cursor: pointer;"><path id="kity_path_272" fill="white" stroke="gray" d="M401.5,187.5A6,6,0,1,1,389.5,187.5A6,6,0,1,1,401.5,187.5"></path><path id="kity_path_273" fill="none" stroke="gray" d="M391,187.5L400,187.5"></path></g><path id="node_outline9" fill="none" stroke="none" d="M406.5,176.5h123a5,5,0,0,1,5,5v12a5,5,0,0,1,-5,5h-123a5,5,0,0,1,-5,-5v-12a5,5,0,0,1,5,-5z"></path><g id="node_text9" fill="black"><text id="kity_text_133" text-rendering="inherit" font-size="12" dy=".8em" y="179.70000004768372" x="411.5">appVersion（只读）</text></g></g><g id="minder_node10"><g id="node_expander7" style="cursor: pointer;" display="none"><path id="kity_path_269" fill="white" stroke="gray" d="M574.5,187.5A6,6,0,1,1,562.5,187.5A6,6,0,1,1,574.5,187.5"></path><path id="kity_path_270" fill="none" stroke="gray"></path></g><path id="node_outline8" fill="none" stroke="none" d="M579.5,176.5h226a5,5,0,0,1,5,5v12a5,5,0,0,1,-5,5h-226a5,5,0,0,1,-5,-5v-12a5,5,0,0,1,5,-5z"></path><g id="node_text8" fill="black"><text id="kity_text_131" text-rendering="inherit" font-size="12" dy=".8em" y="179.70000004768372" x="584.5">以 DOMString 的形式返回浏览器版本。</text></g></g><g id="minder_node11"><g id="node_expander10" style="cursor: pointer;"><path id="kity_path_278" fill="white" stroke="gray" d="M401.5,239.5A6,6,0,1,1,389.5,239.5A6,6,0,1,1,401.5,239.5"></path><path id="kity_path_279" fill="none" stroke="gray" d="M391,239.5L400,239.5"></path></g><path id="node_outline11" fill="#ff0000" stroke="none" d="M406.5,228.5h99a5,5,0,0,1,5,5v12a5,5,0,0,1,-5,5h-99a5,5,0,0,1,-5,-5v-12a5,5,0,0,1,5,-5z"></path><g id="node_text11" fill="black"><text id="kity_text_137" text-rendering="inherit" font-size="12" dy=".8em" y="231.70000004768372" x="411.5">battery（只读） </text></g></g><g id="minder_node12"><g id="node_expander9" style="cursor: pointer;" display="none"><path id="kity_path_275" fill="white" stroke="gray" d="M550.5,239.5A6,6,0,1,1,538.5,239.5A6,6,0,1,1,550.5,239.5"></path><path id="kity_path_276" fill="none" stroke="gray"></path></g><path id="node_outline10" fill="none" stroke="none" d="M555.5,228.5h433a5,5,0,0,1,5,5v12a5,5,0,0,1,-5,5h-433a5,5,0,0,1,-5,-5v-12a5,5,0,0,1,5,-5z"></path><g id="node_text10" fill="black"><text id="kity_text_135" text-rendering="inherit" font-size="12" dy=".8em" y="231.70000004768372" x="560.5">返回一个 BatteryManager 对象，你可以用它来获取一些电池充电状态的信息。</text></g></g><g id="minder_node13"><g id="node_expander12" style="cursor: pointer;"><path id="kity_path_284" fill="white" stroke="gray" d="M401.5,291.5A6,6,0,1,1,389.5,291.5A6,6,0,1,1,401.5,291.5"></path><path id="kity_path_285" fill="none" stroke="gray" d="M391,291.5L400,291.5"></path></g><path id="node_outline13" fill="#ff0000" stroke="none" d="M406.5,280.5h122a5,5,0,0,1,5,5v12a5,5,0,0,1,-5,5h-122a5,5,0,0,1,-5,-5v-12a5,5,0,0,1,5,-5z"></path><g id="node_text13" fill="black"><text id="kity_text_141" text-rendering="inherit" font-size="12" dy=".8em" y="283.7000000476837" x="411.5">connection（只读） </text></g></g><g id="minder_node14"><g id="node_expander11" style="cursor: pointer;" display="none"><path id="kity_path_281" fill="white" stroke="gray" d="M573.5,291.5A6,6,0,1,1,561.5,291.5A6,6,0,1,1,573.5,291.5"></path><path id="kity_path_282" fill="none" stroke="gray"></path></g><path id="node_outline12" fill="none" stroke="none" d="M578.5,280.5h355a5,5,0,0,1,5,5v12a5,5,0,0,1,-5,5h-355a5,5,0,0,1,-5,-5v-12a5,5,0,0,1,5,-5z"></path><g id="node_text12" fill="black"><text id="kity_text_139" text-rendering="inherit" font-size="12" dy=".8em" y="283.7000000476837" x="583.5">提供一个NetworkInformation对象来获取设备的网络连接信息。</text></g></g><g id="minder_node15"><g id="node_expander14" style="cursor: pointer;"><path id="kity_path_290" fill="white" stroke="gray" d="M401.5,343.5A6,6,0,1,1,389.5,343.5A6,6,0,1,1,401.5,343.5"></path><path id="kity_path_291" fill="none" stroke="gray" d="M391,343.5L400,343.5"></path></g><path id="node_outline15" fill="#ff0000" stroke="none" d="M406.5,332.5h126a5,5,0,0,1,5,5v12a5,5,0,0,1,-5,5h-126a5,5,0,0,1,-5,-5v-12a5,5,0,0,1,5,-5z"></path><g id="node_text15" fill="black"><text id="kity_text_145" text-rendering="inherit" font-size="12" dy=".8em" y="335.7000000476837" x="411.5">geolocation（只读） </text></g></g><g id="minder_node16"><g id="node_expander13" style="cursor: pointer;" display="none"><path id="kity_path_287" fill="white" stroke="gray" d="M577.5,343.5A6,6,0,1,1,565.5,343.5A6,6,0,1,1,577.5,343.5"></path><path id="kity_path_288" fill="none" stroke="gray"></path></g><path id="node_outline14" fill="none" stroke="none" d="M582.5,332.5h363a5,5,0,0,1,5,5v12a5,5,0,0,1,-5,5h-363a5,5,0,0,1,-5,-5v-12a5,5,0,0,1,5,-5z"></path><g id="node_text14" fill="black"><text id="kity_text_143" text-rendering="inherit" font-size="12" dy=".8em" y="335.7000000476837" x="587.5">返回一个 Geolocation 对象，据之可访问设备的地理位位置信息。</text></g></g><g id="minder_node17"><g id="node_expander16" style="cursor: pointer;"><path id="kity_path_296" fill="white" stroke="gray" d="M401.5,395.5A6,6,0,1,1,389.5,395.5A6,6,0,1,1,401.5,395.5"></path><path id="kity_path_297" fill="none" stroke="gray" d="M391,395.5L400,395.5"></path></g><path id="node_outline17" fill="none" stroke="none" d="M406.5,384.5h128a5,5,0,0,1,5,5v12a5,5,0,0,1,-5,5h-128a5,5,0,0,1,-5,-5v-12a5,5,0,0,1,5,-5z"></path><g id="node_text17" fill="black"><text id="kity_text_149" text-rendering="inherit" font-size="12" dy=".8em" y="387.7000000476837" x="411.5">javaEnabled（只读） </text></g></g><g id="minder_node18"><g id="node_expander15" style="cursor: pointer;" display="none"><path id="kity_path_293" fill="white" stroke="gray" d="M579.5,395.5A6,6,0,1,1,567.5,395.5A6,6,0,1,1,579.5,395.5"></path><path id="kity_path_294" fill="none" stroke="gray"></path></g><path id="node_outline16" fill="none" stroke="none" d="M584.5,384.5h261a5,5,0,0,1,5,5v12a5,5,0,0,1,-5,5h-261a5,5,0,0,1,-5,-5v-12a5,5,0,0,1,5,-5z"></path><g id="node_text16" fill="black"><text id="kity_text_147" text-rendering="inherit" font-size="12" dy=".8em" y="387.7000000476837" x="589.5">返回一个布尔值表示主机浏览器是否支持java。</text></g></g><g id="minder_node19"><g id="node_expander18" style="cursor: pointer;"><path id="kity_path_302" fill="white" stroke="gray" d="M401.5,447.5A6,6,0,1,1,389.5,447.5A6,6,0,1,1,401.5,447.5"></path><path id="kity_path_303" fill="none" stroke="gray" d="M391,447.5L400,447.5"></path></g><path id="node_outline19" fill="none" stroke="none" d="M406.5,436.5h111a5,5,0,0,1,5,5v12a5,5,0,0,1,-5,5h-111a5,5,0,0,1,-5,-5v-12a5,5,0,0,1,5,-5z"></path><g id="node_text19" fill="black"><text id="kity_text_153" text-rendering="inherit" font-size="12" dy=".8em" y="439.7000000476837" x="411.5">language（只读）	 </text></g></g><g id="minder_node20"><g id="node_expander17" style="cursor: pointer;" display="none"><path id="kity_path_299" fill="white" stroke="gray" d="M562.5,447.5A6,6,0,1,1,550.5,447.5A6,6,0,1,1,562.5,447.5"></path><path id="kity_path_300" fill="none" stroke="gray"></path></g><path id="node_outline18" fill="none" stroke="none" d="M567.5,436.5h243a5,5,0,0,1,5,5v12a5,5,0,0,1,-5,5h-243a5,5,0,0,1,-5,-5v-12a5,5,0,0,1,5,-5z"></path><g id="node_text18" fill="black"><text id="kity_text_151" text-rendering="inherit" font-size="12" dy=".8em" y="439.7000000476837" x="572.5">返回一个DOMString代表用户的首选语言。</text></g></g><g id="minder_node21"><g id="node_expander20" style="cursor: pointer;"><path id="kity_path_308" fill="white" stroke="gray" d="M401.5,499.5A6,6,0,1,1,389.5,499.5A6,6,0,1,1,401.5,499.5"></path><path id="kity_path_309" fill="none" stroke="gray" d="M391,499.5L400,499.5"></path></g><path id="node_outline21" fill="none" stroke="none" d="M406.5,488.5h117a5,5,0,0,1,5,5v12a5,5,0,0,1,-5,5h-117a5,5,0,0,1,-5,-5v-12a5,5,0,0,1,5,-5z"></path><g id="node_text21" fill="black"><text id="kity_text_157" text-rendering="inherit" font-size="12" dy=".8em" y="491.7000000476837" x="411.5">languages（只读） </text></g></g><g id="minder_node22"><g id="node_expander19" style="cursor: pointer;" display="none"><path id="kity_path_305" fill="white" stroke="gray" d="M568.5,499.5A6,6,0,1,1,556.5,499.5A6,6,0,1,1,568.5,499.5"></path><path id="kity_path_306" fill="none" stroke="gray"></path></g><path id="node_outline20" fill="none" stroke="none" d="M573.5,488.5h351a5,5,0,0,1,5,5v12a5,5,0,0,1,-5,5h-351a5,5,0,0,1,-5,-5v-12a5,5,0,0,1,5,-5z"></path><g id="node_text20" fill="black"><text id="kity_text_155" text-rendering="inherit" font-size="12" dy=".8em" y="491.7000000476837" x="578.5">返回一个数组DOMString代表用户的语言列表（存在优先级）。</text></g></g><g id="minder_node23"><g id="node_expander22" style="cursor: pointer;"><path id="kity_path_314" fill="white" stroke="gray" d="M401.5,551.5A6,6,0,1,1,389.5,551.5A6,6,0,1,1,401.5,551.5"></path><path id="kity_path_315" fill="none" stroke="gray" d="M391,551.5L400,551.5"></path></g><path id="node_outline23" fill="#ff0000" stroke="none" d="M406.5,540.5h124a5,5,0,0,1,5,5v12a5,5,0,0,1,-5,5h-124a5,5,0,0,1,-5,-5v-12a5,5,0,0,1,5,-5z"></path><g id="node_text23" fill="black"><text id="kity_text_161" text-rendering="inherit" font-size="12" dy=".8em" y="543.7000000476837" x="411.5">mimeTypes（只读） </text></g></g><g id="minder_node24"><g id="node_expander21" style="cursor: pointer;" display="none"><path id="kity_path_311" fill="white" stroke="gray" d="M575.5,551.5A6,6,0,1,1,563.5,551.5A6,6,0,1,1,575.5,551.5"></path><path id="kity_path_312" fill="none" stroke="gray"></path></g><path id="node_outline22" fill="none" stroke="none" d="M580.5,540.5h305a5,5,0,0,1,5,5v12a5,5,0,0,1,-5,5h-305a5,5,0,0,1,-5,-5v-12a5,5,0,0,1,5,-5z"></path><g id="node_text22" fill="black"><text id="kity_text_159" text-rendering="inherit" font-size="12" dy=".8em" y="543.7000000476837" x="585.5">返回一个MIME类型数组代表浏览器支持的MIME类型。</text></g></g><g id="minder_node25"><g id="node_expander24" style="cursor: pointer;"><path id="kity_path_320" fill="white" stroke="gray" d="M401.5,603.5A6,6,0,1,1,389.5,603.5A6,6,0,1,1,401.5,603.5"></path><path id="kity_path_321" fill="none" stroke="gray" d="M391,603.5L400,603.5"></path></g><path id="node_outline25" fill="#ff0000" stroke="none" d="M406.5,592.5h97a5,5,0,0,1,5,5v12a5,5,0,0,1,-5,5h-97a5,5,0,0,1,-5,-5v-12a5,5,0,0,1,5,-5z"></path><g id="node_text25" fill="black"><text id="kity_text_165" text-rendering="inherit" font-size="12" dy=".8em" y="595.7000000476837" x="411.5">onLine（只读） </text></g></g><g id="minder_node26"><g id="node_expander23" style="cursor: pointer;" display="none"><path id="kity_path_317" fill="white" stroke="gray" d="M548.5,603.5A6,6,0,1,1,536.5,603.5A6,6,0,1,1,548.5,603.5"></path><path id="kity_path_318" fill="none" stroke="gray"></path></g><path id="node_outline24" fill="none" stroke="none" d="M553.5,592.5h130a5,5,0,0,1,5,5v12a5,5,0,0,1,-5,5h-130a5,5,0,0,1,-5,-5v-12a5,5,0,0,1,5,-5z"></path><g id="node_text24" fill="black"><text id="kity_text_163" text-rendering="inherit" font-size="12" dy=".8em" y="595.7000000476837" x="558.5">返回浏览器是否在线。</text></g></g><g id="minder_node27"><g id="node_expander26" style="cursor: pointer;"><path id="kity_path_326" fill="white" stroke="gray" d="M401.5,655.5A6,6,0,1,1,389.5,655.5A6,6,0,1,1,401.5,655.5"></path><path id="kity_path_327" fill="none" stroke="gray" d="M391,655.5L400,655.5"></path></g><path id="node_outline27" fill="none" stroke="none" d="M406.5,644.5h92a5,5,0,0,1,5,5v12a5,5,0,0,1,-5,5h-92a5,5,0,0,1,-5,-5v-12a5,5,0,0,1,5,-5z"></path><g id="node_text27" fill="black"><text id="kity_text_169" text-rendering="inherit" font-size="12" dy=".8em" y="647.7000000476837" x="411.5">oscpu（只读）</text></g></g><g id="minder_node28"><g id="node_expander25" style="cursor: pointer;" display="none"><path id="kity_path_323" fill="white" stroke="gray" d="M543.5,655.5A6,6,0,1,1,531.5,655.5A6,6,0,1,1,543.5,655.5"></path><path id="kity_path_324" fill="none" stroke="gray"></path></g><path id="node_outline26" fill="none" stroke="none" d="M548.5,644.5h176a5,5,0,0,1,5,5v12a5,5,0,0,1,-5,5h-176a5,5,0,0,1,-5,-5v-12a5,5,0,0,1,5,-5z"></path><g id="node_text26" fill="black"><text id="kity_text_167" text-rendering="inherit" font-size="12" dy=".8em" y="647.7000000476837" x="553.5">返回一个String代表操作系统。</text></g></g><g id="minder_node29"><g id="node_expander28" style="cursor: pointer;"><path id="kity_path_332" fill="white" stroke="gray" d="M401.5,707.5A6,6,0,1,1,389.5,707.5A6,6,0,1,1,401.5,707.5"></path><path id="kity_path_333" fill="none" stroke="gray" d="M391,707.5L400,707.5"></path></g><path id="node_outline29" fill="none" stroke="none" d="M406.5,696.5h108a5,5,0,0,1,5,5v12a5,5,0,0,1,-5,5h-108a5,5,0,0,1,-5,-5v-12a5,5,0,0,1,5,-5z"></path><g id="node_text29" fill="black"><text id="kity_text_173" text-rendering="inherit" font-size="12" dy=".8em" y="699.7000000476837" x="411.5">platform（只读） </text></g></g><g id="minder_node30"><g id="node_expander27" style="cursor: pointer;" display="none"><path id="kity_path_329" fill="white" stroke="gray" d="M559.5,707.5A6,6,0,1,1,547.5,707.5A6,6,0,1,1,559.5,707.5"></path><path id="kity_path_330" fill="none" stroke="gray"></path></g><path id="node_outline28" fill="none" stroke="none" d="M564.5,696.5h202a5,5,0,0,1,5,5v12a5,5,0,0,1,-5,5h-202a5,5,0,0,1,-5,-5v-12a5,5,0,0,1,5,-5z"></path><g id="node_text28" fill="black"><text id="kity_text_171" text-rendering="inherit" font-size="12" dy=".8em" y="699.7000000476837" x="569.5">返回一个字符串代表浏览器的平台。</text></g></g><g id="minder_node31"><g id="node_expander30" style="cursor: pointer;"><path id="kity_path_338" fill="white" stroke="gray" d="M401.5,759.5A6,6,0,1,1,389.5,759.5A6,6,0,1,1,401.5,759.5"></path><path id="kity_path_339" fill="none" stroke="gray" d="M391,759.5L400,759.5"></path></g><path id="node_outline31" fill="none" stroke="none" d="M406.5,748.5h100a5,5,0,0,1,5,5v12a5,5,0,0,1,-5,5h-100a5,5,0,0,1,-5,-5v-12a5,5,0,0,1,5,-5z"></path><g id="node_text31" fill="black"><text id="kity_text_177" text-rendering="inherit" font-size="12" dy=".8em" y="751.7000000476837" x="411.5">plugins（只读） </text></g></g><g id="minder_node32"><g id="node_expander29" style="cursor: pointer;" display="none"><path id="kity_path_335" fill="white" stroke="gray" d="M551.5,759.5A6,6,0,1,1,539.5,759.5A6,6,0,1,1,551.5,759.5"></path><path id="kity_path_336" fill="none" stroke="gray"></path></g><path id="node_outline30" fill="none" stroke="none" d="M556.5,748.5h214a5,5,0,0,1,5,5v12a5,5,0,0,1,-5,5h-214a5,5,0,0,1,-5,-5v-12a5,5,0,0,1,5,-5z"></path><g id="node_text30" fill="black"><text id="kity_text_175" text-rendering="inherit" font-size="12" dy=".8em" y="751.7000000476837" x="561.5">返回一个数组代表浏览器安装的插件。</text></g></g><g id="minder_node33"><g id="node_expander32" style="cursor: pointer;"><path id="kity_path_344" fill="white" stroke="gray" d="M401.5,811.5A6,6,0,1,1,389.5,811.5A6,6,0,1,1,401.5,811.5"></path><path id="kity_path_345" fill="none" stroke="gray" d="M391,811.5L400,811.5"></path></g><path id="node_outline33" fill="none" stroke="none" d="M406.5,800.5h103a5,5,0,0,1,5,5v12a5,5,0,0,1,-5,5h-103a5,5,0,0,1,-5,-5v-12a5,5,0,0,1,5,-5z"></path><g id="node_text33" fill="black"><text id="kity_text_181" text-rendering="inherit" font-size="12" dy=".8em" y="803.7000000476837" x="411.5">product（只读） </text></g></g><g id="minder_node34"><g id="node_expander31" style="cursor: pointer;" display="none"><path id="kity_path_341" fill="white" stroke="gray" d="M554.5,811.5A6,6,0,1,1,542.5,811.5A6,6,0,1,1,554.5,811.5"></path><path id="kity_path_342" fill="none" stroke="gray"></path></g><path id="node_outline32" fill="none" stroke="none" d="M559.5,800.5h178a5,5,0,0,1,5,5v12a5,5,0,0,1,-5,5h-178a5,5,0,0,1,-5,-5v-12a5,5,0,0,1,5,-5z"></path><g id="node_text32" fill="black"><text id="kity_text_179" text-rendering="inherit" font-size="12" dy=".8em" y="803.7000000476837" x="564.5">所有浏览器都返回‘Gecko’。</text></g></g><g id="minder_node35"><g id="node_expander34" style="cursor: pointer;"><path id="kity_path_350" fill="white" stroke="gray" d="M401.5,863.5A6,6,0,1,1,389.5,863.5A6,6,0,1,1,401.5,863.5"></path><path id="kity_path_351" fill="none" stroke="gray" d="M391,863.5L400,863.5"></path></g><path id="node_outline35" fill="#ff0000" stroke="none" d="M406.5,852.5h117a5,5,0,0,1,5,5v12a5,5,0,0,1,-5,5h-117a5,5,0,0,1,-5,-5v-12a5,5,0,0,1,5,-5z"></path><g id="node_text35" fill="black"><text id="kity_text_185" text-rendering="inherit" font-size="12" dy=".8em" y="855.7000000476837" x="411.5">userAgent（只读） </text></g></g><g id="minder_node36"><g id="node_expander33" style="cursor: pointer;" display="none"><path id="kity_path_347" fill="white" stroke="gray" d="M568.5,863.5A6,6,0,1,1,556.5,863.5A6,6,0,1,1,568.5,863.5"></path><path id="kity_path_348" fill="none" stroke="gray"></path></g><path id="node_outline34" fill="none" stroke="none" d="M573.5,852.5h202a5,5,0,0,1,5,5v12a5,5,0,0,1,-5,5h-202a5,5,0,0,1,-5,-5v-12a5,5,0,0,1,5,-5z"></path><g id="node_text34" fill="black"><text id="kity_text_183" text-rendering="inherit" font-size="12" dy=".8em" y="855.7000000476837" x="578.5">返回当前浏览器的用户代理字符串。</text></g></g><g id="minder_node37"><g id="node_expander44" style="cursor: pointer;"><path id="kity_path_380" fill="white" stroke="gray" d="M292.5,1003.5A6,6,0,1,1,280.5,1003.5A6,6,0,1,1,292.5,1003.5"></path><path id="kity_path_381" fill="none" stroke="gray" d="M282,1003.5L291,1003.5"></path></g><path id="node_outline45" fill="rgb(239, 238, 246)" stroke="rgb(123, 115, 191)" d="M296.5,990.5h104a3,3,0,0,1,3,3v20a3,3,0,0,1,-3,3h-104a3,3,0,0,1,-3,-3v-20a3,3,0,0,1,3,-3z" stroke-width="1"></path><g id="node_text45" fill="black"><text id="kity_text_205" text-rendering="inherit" font-size="14" dy=".8em" y="994.4000000953674" x="313.5">方法及事件</text></g></g><g id="minder_node38"><g id="node_expander37" style="cursor: pointer;"><path id="kity_path_359" fill="white" stroke="gray" d="M443.5,925.5A6,6,0,1,1,431.5,925.5A6,6,0,1,1,443.5,925.5"></path><path id="kity_path_360" fill="none" stroke="gray" d="M433,925.5L442,925.5"></path></g><path id="node_outline38" fill="none" stroke="none" d="M448.5,914.5h99a5,5,0,0,1,5,5v12a5,5,0,0,1,-5,5h-99a5,5,0,0,1,-5,-5v-12a5,5,0,0,1,5,-5z"></path><g id="node_text38" fill="black"><text id="kity_text_191" text-rendering="inherit" font-size="12" dy=".8em" y="917.7000000476837" x="453.5">getUserMedia()</text></g></g><g id="minder_node39"><g id="node_expander36" style="cursor: pointer;" display="none"><path id="kity_path_356" fill="white" stroke="gray" d="M592.5,925.5A6,6,0,1,1,580.5,925.5A6,6,0,1,1,592.5,925.5"></path><path id="kity_path_357" fill="none" stroke="gray"></path></g><path id="node_outline37" fill="none" stroke="none" d="M597.5,914.5h310a5,5,0,0,1,5,5v12a5,5,0,0,1,-5,5h-310a5,5,0,0,1,-5,-5v-12a5,5,0,0,1,5,-5z"></path><g id="node_text37" fill="black"><text id="kity_text_189" text-rendering="inherit" font-size="12" dy=".8em" y="917.7000000476837" x="602.5">通过提示获得用户许可，返回一个音频或摄像头的调用。</text></g></g><g id="minder_node40"><g id="node_expander39" style="cursor: pointer;"><path id="kity_path_365" fill="white" stroke="gray" d="M443.5,977.5A6,6,0,1,1,431.5,977.5A6,6,0,1,1,443.5,977.5"></path><path id="kity_path_366" fill="none" stroke="gray" d="M433,977.5L442,977.5"></path></g><path id="node_outline40" fill="none" stroke="none" d="M448.5,966.5h214a5,5,0,0,1,5,5v12a5,5,0,0,1,-5,5h-214a5,5,0,0,1,-5,-5v-12a5,5,0,0,1,5,-5z"></path><g id="node_text40" fill="black"><text id="kity_text_195" text-rendering="inherit" font-size="12" dy=".8em" y="969.7000000476837" x="453.5">registerContentHandler(mimeType)</text></g></g><g id="minder_node41"><g id="node_expander38" style="cursor: pointer;" display="none"><path id="kity_path_362" fill="white" stroke="gray" d="M707.5,977.5A6,6,0,1,1,695.5,977.5A6,6,0,1,1,707.5,977.5"></path><path id="kity_path_363" fill="none" stroke="gray"></path></g><path id="node_outline39" fill="none" stroke="none" d="M712.5,966.5h236a5,5,0,0,1,5,5v12a5,5,0,0,1,-5,5h-236a5,5,0,0,1,-5,-5v-12a5,5,0,0,1,5,-5z"></path><g id="node_text39" fill="black"><text id="kity_text_193" text-rendering="inherit" font-size="12" dy=".8em" y="969.7000000476837" x="717.5">允许网站注册一个可能处理的MIME类型。</text></g></g><g id="minder_node42"><g id="node_expander41" style="cursor: pointer;"><path id="kity_path_371" fill="white" stroke="gray" d="M443.5,1029.5A6,6,0,1,1,431.5,1029.5A6,6,0,1,1,443.5,1029.5"></path><path id="kity_path_372" fill="none" stroke="gray" d="M433,1029.5L442,1029.5"></path></g><path id="node_outline42" fill="none" stroke="none" d="M448.5,1018.5h205a5,5,0,0,1,5,5v12a5,5,0,0,1,-5,5h-205a5,5,0,0,1,-5,-5v-12a5,5,0,0,1,5,-5z"></path><g id="node_text42" fill="black"><text id="kity_text_199" text-rendering="inherit" font-size="12" dy=".8em" y="1021.7000000476837" x="453.5">registerProtocolHandler(protocol)</text></g></g><g id="minder_node43"><g id="node_expander40" style="cursor: pointer;" display="none"><path id="kity_path_368" fill="white" stroke="gray" d="M698.5,1029.5A6,6,0,1,1,686.5,1029.5A6,6,0,1,1,698.5,1029.5"></path><path id="kity_path_369" fill="none" stroke="gray"></path></g><path id="node_outline41" fill="none" stroke="none" d="M703.5,1018.5h202a5,5,0,0,1,5,5v12a5,5,0,0,1,-5,5h-202a5,5,0,0,1,-5,-5v-12a5,5,0,0,1,5,-5z"></path><g id="node_text41" fill="black"><text id="kity_text_197" text-rendering="inherit" font-size="12" dy=".8em" y="1021.7000000476837" x="708.5">允许网站注册一个可能处理的协议。</text></g></g><g id="minder_node44"><g id="node_expander43" style="cursor: pointer;"><path id="kity_path_377" fill="white" stroke="gray" d="M443.5,1081.5A6,6,0,1,1,431.5,1081.5A6,6,0,1,1,443.5,1081.5"></path><path id="kity_path_378" fill="none" stroke="gray" d="M433,1081.5L442,1081.5"></path></g><path id="node_outline44" fill="#ff0000" stroke="none" d="M448.5,1070.5h100a5,5,0,0,1,5,5v12a5,5,0,0,1,-5,5h-100a5,5,0,0,1,-5,-5v-12a5,5,0,0,1,5,-5z"></path><g id="node_text44" fill="black"><text id="kity_text_203" text-rendering="inherit" font-size="12" dy=".8em" y="1073.7000000476837" x="453.5">vibrate(pattern)</text></g></g><g id="minder_node45"><g id="node_expander42" style="cursor: pointer;" display="none"><path id="kity_path_374" fill="white" stroke="gray" d="M593.5,1081.5A6,6,0,1,1,581.5,1081.5A6,6,0,1,1,593.5,1081.5"></path><path id="kity_path_375" fill="none" stroke="gray"></path></g><path id="node_outline43" fill="none" stroke="none" d="M598.5,1070.5h106a5,5,0,0,1,5,5v12a5,5,0,0,1,-5,5h-106a5,5,0,0,1,-5,-5v-12a5,5,0,0,1,5,-5z"></path><g id="node_text43" fill="black"><text id="kity_text_201" text-rendering="inherit" font-size="12" dy=".8em" y="1073.7000000476837" x="603.5">调用设备的震动。</text></g></g></g></g></svg>