<svg id="kity_svg_6" xmlns="http://www.w3.org/2000/svg" xmlns:xlink="http://www.w3.org/1999/xlink" version="1.1" width="1684" height="852" style="background: rgb(251, 251, 251); visibility: visible;" viewBox="0 0 1684 852"><defs id="kity_defs_7"><linearGradient id="kity_linearGradient_17" x1="0" y1="0" x2="0" y2="1"><stop id="kity_stop_18" offset="0" stop-color="rgb(255, 255, 255)"></stop><stop id="kity_stop_19" offset="1" stop-color="rgb(204, 204, 204)"></stop></linearGradient><marker id="kity_marker_4" orient="auto" refX="6" refY="0" viewBox="-7 -7 14 14" markerWidth="7" markerHeight="7" markerUnits="userSpaceOnUse"><path id="kity_path_5" fill="rgb(115, 161, 191)" stroke="none" d="M6,0A6,6,0,1,1,-6,0A6,6,0,1,1,6,0"></path></marker><marker id="kity_marker_2" orient="auto" refX="6" refY="0" viewBox="-7 -7 14 14" markerWidth="7" markerHeight="7" markerUnits="userSpaceOnUse"><path id="kity_path_3" fill="rgb(115, 161, 191)" stroke="none" d="M6,0A6,6,0,1,1,-6,0A6,6,0,1,1,6,0"></path></marker></defs><g id="kity_g_8"><g id="minder1" text-rendering="optimize-speed"><g id="minder_connect_group1"><path id="kity_path_31" fill="none" stroke="rgb(115, 161, 191)" stroke-width="1" d="M91.5,530.5A189,213,0,0,1,280.5,317.5"></path><path id="kity_path_33" fill="none" stroke="rgb(115, 161, 191)" stroke-width="1" d="M350.5,317.5C370.5,317.5,370.5,31.5,390.5,31.5"></path><path id="kity_path_35" fill="none" stroke="rgb(115, 161, 191)" stroke-width="1" d="M433.5,31.5C453.5,31.5,453.5,31.5,473.5,31.5"></path><path id="kity_path_37" fill="none" stroke="rgb(115, 161, 191)" stroke-width="1" d="M350.5,317.5C370.5,317.5,370.5,83.5,390.5,83.5"></path><path id="kity_path_39" fill="none" stroke="rgb(115, 161, 191)" stroke-width="1" d="M459.5,83.5C479.5,83.5,479.5,83.5,499.5,83.5"></path><path id="kity_path_41" fill="none" stroke="rgb(115, 161, 191)" stroke-width="1" d="M350.5,317.5C370.5,317.5,370.5,135.5,390.5,135.5"></path><path id="kity_path_43" fill="none" stroke="rgb(115, 161, 191)" stroke-width="1" d="M435.5,135.5C455.5,135.5,455.5,135.5,475.5,135.5"></path><path id="kity_path_45" fill="none" stroke="rgb(115, 161, 191)" stroke-width="1" d="M350.5,317.5C370.5,317.5,370.5,187.5,390.5,187.5"></path><path id="kity_path_47" fill="none" stroke="rgb(115, 161, 191)" stroke-width="1" d="M467.5,187.5C487.5,187.5,487.5,187.5,507.5,187.5"></path><path id="kity_path_49" fill="none" stroke="rgb(115, 161, 191)" stroke-width="1" d="M350.5,317.5C370.5,317.5,370.5,239.5,390.5,239.5"></path><path id="kity_path_51" fill="none" stroke="rgb(115, 161, 191)" stroke-width="1" d="M434.5,239.5C454.5,239.5,454.5,239.5,474.5,239.5"></path><path id="kity_path_53" fill="none" stroke="rgb(115, 161, 191)" stroke-width="1" d="M350.5,317.5C370.5,317.5,370.5,291.5,390.5,291.5"></path><path id="kity_path_55" fill="none" stroke="rgb(115, 161, 191)" stroke-width="1" d="M468.5,291.5C488.5,291.5,488.5,291.5,508.5,291.5"></path><path id="kity_path_57" fill="none" stroke="rgb(115, 161, 191)" stroke-width="1" d="M350.5,317.5C370.5,317.5,370.5,343.5,390.5,343.5"></path><path id="kity_path_59" fill="none" stroke="rgb(115, 161, 191)" stroke-width="1" d="M447.5,343.5C467.5,343.5,467.5,343.5,487.5,343.5"></path><path id="kity_path_61" fill="none" stroke="rgb(115, 161, 191)" stroke-width="1" d="M350.5,317.5C370.5,317.5,370.5,395.5,390.5,395.5"></path><path id="kity_path_63" fill="none" stroke="rgb(115, 161, 191)" stroke-width="1" d="M437.5,395.5C457.5,395.5,457.5,395.5,477.5,395.5"></path><path id="kity_path_65" fill="none" stroke="rgb(115, 161, 191)" stroke-width="1" d="M350.5,317.5C370.5,317.5,370.5,447.5,390.5,447.5"></path><path id="kity_path_67" fill="none" stroke="rgb(115, 161, 191)" stroke-width="1" d="M466.5,447.5C486.5,447.5,486.5,447.5,506.5,447.5"></path><path id="kity_path_69" fill="none" stroke="rgb(115, 161, 191)" stroke-width="1" d="M350.5,317.5C370.5,317.5,370.5,499.5,390.5,499.5"></path><path id="kity_path_71" fill="none" stroke="rgb(115, 161, 191)" stroke-width="1" d="M465.5,499.5C485.5,499.5,485.5,499.5,505.5,499.5"></path><path id="kity_path_73" fill="none" stroke="rgb(115, 161, 191)" stroke-width="1" d="M350.5,317.5C370.5,317.5,370.5,551.5,390.5,551.5"></path><path id="kity_path_75" fill="none" stroke="rgb(115, 161, 191)" stroke-width="1" d="M444.5,551.5C464.5,551.5,464.5,551.5,484.5,551.5"></path><path id="kity_path_77" fill="none" stroke="rgb(115, 161, 191)" stroke-width="1" d="M350.5,317.5C370.5,317.5,370.5,603.5,390.5,603.5"></path><path id="kity_path_79" fill="none" stroke="rgb(115, 161, 191)" stroke-width="1" d="M91.5,530.5A189,213,0,0,0,280.5,743.5"></path><path id="kity_path_81" fill="none" stroke="rgb(115, 161, 191)" stroke-width="1" d="M350.5,743.5C370.5,743.5,370.5,665.5,390.5,665.5"></path><path id="kity_path_83" fill="none" stroke="rgb(115, 161, 191)" stroke-width="1" d="M454.5,665.5C474.5,665.5,474.5,665.5,494.5,665.5"></path><path id="kity_path_85" fill="none" stroke="rgb(115, 161, 191)" stroke-width="1" d="M350.5,743.5C370.5,743.5,370.5,717.5,390.5,717.5"></path><path id="kity_path_87" fill="none" stroke="rgb(115, 161, 191)" stroke-width="1" d="M454.5,717.5C474.5,717.5,474.5,717.5,494.5,717.5"></path><path id="kity_path_89" fill="none" stroke="rgb(115, 161, 191)" stroke-width="1" d="M350.5,743.5C370.5,743.5,370.5,769.5,390.5,769.5"></path><path id="kity_path_91" fill="none" stroke="rgb(115, 161, 191)" stroke-width="1" d="M460.5,769.5C480.5,769.5,480.5,769.5,500.5,769.5"></path><path id="kity_path_93" fill="none" stroke="rgb(115, 161, 191)" stroke-width="1" d="M350.5,743.5C370.5,743.5,370.5,821.5,390.5,821.5"></path><path id="kity_path_95" fill="none" stroke="rgb(115, 161, 191)" stroke-width="1" d="M464.5,821.5C484.5,821.5,484.5,821.5,504.5,821.5"></path></g><g id="minder_node1"><path id="node_outline1" fill="rgb(115, 161, 191)" stroke="rgb(115, 161, 191)" d="M25.5,510.5h132a5,5,0,0,1,5,5v30a5,5,0,0,1,-5,5h-132a5,5,0,0,1,-5,-5v-30a5,5,0,0,1,5,-5z" stroke-width="3"></path><g id="node_text1" fill="white"><text id="kity_text_22" text-rendering="inherit" font-size="16" dy=".8em" y="520.0999999046326" x="44.5">location对象</text></g></g><g id="kity_g_12"><path id="kity_path_13" fill="none" stroke="none" d="M44.5,530.5h0v0h0z"></path></g><g id="kity_g_14"><path id="kity_path_15" fill="none" stroke="none" d="M44.5,530.5h0v0h0z"></path><path id="kity_path_16" fill="none" stroke="none"></path></g><g id="minder_node2"><g id="node_expander24" style="cursor: pointer;"><path id="kity_path_265" fill="white" stroke="gray" d="M281.5,317.5A6,6,0,1,1,269.5,317.5A6,6,0,1,1,281.5,317.5"></path><path id="kity_path_266" fill="none" stroke="gray" d="M271,317.5L280,317.5"></path></g><path id="node_outline25" fill="rgb(238, 243, 246)" stroke="rgb(115, 161, 191)" d="M285.5,304.5h62a3,3,0,0,1,3,3v20a3,3,0,0,1,-3,3h-62a3,3,0,0,1,-3,-3v-20a3,3,0,0,1,3,-3z" stroke-width="1"></path><g id="node_text25" fill="black"><text id="kity_text_143" text-rendering="inherit" font-size="14" dy=".8em" y="308.40000009536743" x="302.5">属性</text></g></g><g id="minder_node3"><g id="node_expander2" style="cursor: pointer;"><path id="kity_path_199" fill="white" stroke="gray" d="M390.5,31.5A6,6,0,1,1,378.5,31.5A6,6,0,1,1,390.5,31.5"></path><path id="kity_path_200" fill="none" stroke="gray" d="M380,31.5L389,31.5"></path></g><path id="node_outline3" fill="#ff0000" stroke="none" d="M395.5,20.5h33a5,5,0,0,1,5,5v12a5,5,0,0,1,-5,5h-33a5,5,0,0,1,-5,-5v-12a5,5,0,0,1,5,-5z" stroke-width="3"></path><g id="node_text3" fill="black"><text id="kity_text_99" text-rendering="inherit" font-size="12" dy=".8em" y="23.700000047683716" x="400.5">href</text></g></g><g id="minder_node4"><g id="node_expander1" style="cursor: pointer;" display="none"><path id="kity_path_196" fill="white" stroke="gray" d="M473.5,31.5A6,6,0,1,1,461.5,31.5A6,6,0,1,1,473.5,31.5"></path><path id="kity_path_197" fill="none" stroke="gray"></path></g><path id="node_outline2" fill="none" stroke="none" d="M478.5,20.5h194a5,5,0,0,1,5,5v12a5,5,0,0,1,-5,5h-194a5,5,0,0,1,-5,-5v-12a5,5,0,0,1,5,-5z"></path><g id="node_text2" fill="black"><text id="kity_text_97" text-rendering="inherit" font-size="12" dy=".8em" y="23.700000047683716" x="483.5">包括整个URL得一个DOMString。</text></g></g><g id="minder_node5"><g id="node_expander4" style="cursor: pointer;"><path id="kity_path_205" fill="white" stroke="gray" d="M390.5,83.5A6,6,0,1,1,378.5,83.5A6,6,0,1,1,390.5,83.5"></path><path id="kity_path_206" fill="none" stroke="gray" d="M380,83.5L389,83.5"></path></g><path id="node_outline5" fill="none" stroke="none" d="M395.5,72.5h59a5,5,0,0,1,5,5v12a5,5,0,0,1,-5,5h-59a5,5,0,0,1,-5,-5v-12a5,5,0,0,1,5,-5z"></path><g id="node_text5" fill="black"><text id="kity_text_103" text-rendering="inherit" font-size="12" dy=".8em" y="75.70000004768372" x="400.5">protocol</text></g></g><g id="minder_node6"><g id="node_expander3" style="cursor: pointer;" display="none"><path id="kity_path_202" fill="white" stroke="gray" d="M499.5,83.5A6,6,0,1,1,487.5,83.5A6,6,0,1,1,499.5,83.5"></path><path id="kity_path_203" fill="none" stroke="gray"></path></g><path id="node_outline4" fill="none" stroke="none" d="M504.5,72.5h341a5,5,0,0,1,5,5v12a5,5,0,0,1,-5,5h-341a5,5,0,0,1,-5,-5v-12a5,5,0,0,1,5,-5z"></path><g id="node_text4" fill="black"><text id="kity_text_101" text-rendering="inherit" font-size="12" dy=".8em" y="75.70000004768372" x="509.5">包含URL对应协议的一个DOMString。如http:（包括冒号）。</text></g></g><g id="minder_node7"><g id="node_expander6" style="cursor: pointer;"><path id="kity_path_211" fill="white" stroke="gray" d="M390.5,135.5A6,6,0,1,1,378.5,135.5A6,6,0,1,1,390.5,135.5"></path><path id="kity_path_212" fill="none" stroke="gray" d="M380,135.5L389,135.5"></path></g><path id="node_outline7" fill="#ff0000" stroke="none" d="M395.5,124.5h35a5,5,0,0,1,5,5v12a5,5,0,0,1,-5,5h-35a5,5,0,0,1,-5,-5v-12a5,5,0,0,1,5,-5z" stroke-width="3"></path><g id="node_text7" fill="black"><text id="kity_text_107" text-rendering="inherit" font-size="12" dy=".8em" y="127.70000004768372" x="400.5">host</text></g></g><g id="minder_node8"><g id="node_expander5" style="cursor: pointer;" display="none"><path id="kity_path_208" fill="white" stroke="gray" d="M475.5,135.5A6,6,0,1,1,463.5,135.5A6,6,0,1,1,475.5,135.5"></path><path id="kity_path_209" fill="none" stroke="gray"></path></g><path id="node_outline6" fill="none" stroke="none" d="M480.5,124.5h350a5,5,0,0,1,5,5v12a5,5,0,0,1,-5,5h-350a5,5,0,0,1,-5,-5v-12a5,5,0,0,1,5,-5z"></path><g id="node_text6" fill="black"><text id="kity_text_105" text-rendering="inherit" font-size="12" dy=".8em" y="127.70000004768372" x="485.5">包含域名的一个DOMString。如localhost:8080（包括端口）。</text></g></g><g id="minder_node9"><g id="node_expander8" style="cursor: pointer;"><path id="kity_path_217" fill="white" stroke="gray" d="M390.5,187.5A6,6,0,1,1,378.5,187.5A6,6,0,1,1,390.5,187.5"></path><path id="kity_path_218" fill="none" stroke="gray" d="M380,187.5L389,187.5"></path></g><path id="node_outline9" fill="#ff0000" stroke="none" d="M395.5,176.5h67a5,5,0,0,1,5,5v12a5,5,0,0,1,-5,5h-67a5,5,0,0,1,-5,-5v-12a5,5,0,0,1,5,-5z" stroke-width="3"></path><g id="node_text9" fill="black"><text id="kity_text_111" text-rendering="inherit" font-size="12" dy=".8em" y="179.70000004768372" x="400.5">hostname</text></g></g><g id="minder_node10"><g id="node_expander7" style="cursor: pointer;" display="none"><path id="kity_path_214" fill="white" stroke="gray" d="M507.5,187.5A6,6,0,1,1,495.5,187.5A6,6,0,1,1,507.5,187.5"></path><path id="kity_path_215" fill="none" stroke="gray"></path></g><path id="node_outline8" fill="none" stroke="none" d="M512.5,176.5h171a5,5,0,0,1,5,5v12a5,5,0,0,1,-5,5h-171a5,5,0,0,1,-5,-5v-12a5,5,0,0,1,5,-5z"></path><g id="node_text8" fill="black"><text id="kity_text_109" text-rendering="inherit" font-size="12" dy=".8em" y="179.70000004768372" x="517.5">包含域名的一个DOMString。</text></g></g><g id="minder_node11"><g id="node_expander10" style="cursor: pointer;"><path id="kity_path_223" fill="white" stroke="gray" d="M390.5,239.5A6,6,0,1,1,378.5,239.5A6,6,0,1,1,390.5,239.5"></path><path id="kity_path_224" fill="none" stroke="gray" d="M380,239.5L389,239.5"></path></g><path id="node_outline11" fill="#ff0000" stroke="none" d="M395.5,228.5h34a5,5,0,0,1,5,5v12a5,5,0,0,1,-5,5h-34a5,5,0,0,1,-5,-5v-12a5,5,0,0,1,5,-5z" stroke-width="3"></path><g id="node_text11" fill="black"><text id="kity_text_115" text-rendering="inherit" font-size="12" dy=".8em" y="231.70000004768372" x="400.5">port</text></g></g><g id="minder_node12"><g id="node_expander9" style="cursor: pointer;" display="none"><path id="kity_path_220" fill="white" stroke="gray" d="M474.5,239.5A6,6,0,1,1,462.5,239.5A6,6,0,1,1,474.5,239.5"></path><path id="kity_path_221" fill="none" stroke="gray"></path></g><path id="node_outline10" fill="none" stroke="none" d="M479.5,228.5h183a5,5,0,0,1,5,5v12a5,5,0,0,1,-5,5h-183a5,5,0,0,1,-5,-5v-12a5,5,0,0,1,5,-5z"></path><g id="node_text10" fill="black"><text id="kity_text_113" text-rendering="inherit" font-size="12" dy=".8em" y="231.70000004768372" x="484.5">包含端口号的一个DOMString。</text></g></g><g id="minder_node13"><g id="node_expander12" style="cursor: pointer;"><path id="kity_path_229" fill="white" stroke="gray" d="M390.5,291.5A6,6,0,1,1,378.5,291.5A6,6,0,1,1,390.5,291.5"></path><path id="kity_path_230" fill="none" stroke="gray" d="M380,291.5L389,291.5"></path></g><path id="node_outline13" fill="#ff0000" stroke="none" d="M395.5,280.5h68a5,5,0,0,1,5,5v12a5,5,0,0,1,-5,5h-68a5,5,0,0,1,-5,-5v-12a5,5,0,0,1,5,-5z" stroke-width="3"></path><g id="node_text13" fill="black"><text id="kity_text_119" text-rendering="inherit" font-size="12" dy=".8em" y="283.7000000476837" x="400.5">pathname</text></g></g><g id="minder_node14"><g id="node_expander11" style="cursor: pointer;" display="none"><path id="kity_path_226" fill="white" stroke="gray" d="M508.5,291.5A6,6,0,1,1,496.5,291.5A6,6,0,1,1,508.5,291.5"></path><path id="kity_path_227" fill="none" stroke="gray"></path></g><path id="node_outline12" fill="none" stroke="none" d="M513.5,280.5h307a5,5,0,0,1,5,5v12a5,5,0,0,1,-5,5h-307a5,5,0,0,1,-5,-5v-12a5,5,0,0,1,5,-5z"></path><g id="node_text12" fill="black"><text id="kity_text_117" text-rendering="inherit" font-size="12" dy=".8em" y="283.7000000476837" x="518.5">包含URL中路径部分的一个DOMString，以‘/’开头。</text></g></g><g id="minder_node15"><g id="node_expander14" style="cursor: pointer;"><path id="kity_path_235" fill="white" stroke="gray" d="M390.5,343.5A6,6,0,1,1,378.5,343.5A6,6,0,1,1,390.5,343.5"></path><path id="kity_path_236" fill="none" stroke="gray" d="M380,343.5L389,343.5"></path></g><path id="node_outline15" fill="#ff0000" stroke="none" d="M395.5,332.5h47a5,5,0,0,1,5,5v12a5,5,0,0,1,-5,5h-47a5,5,0,0,1,-5,-5v-12a5,5,0,0,1,5,-5z" stroke-width="3"></path><g id="node_text15" fill="black"><text id="kity_text_123" text-rendering="inherit" font-size="12" dy=".8em" y="335.7000000476837" x="400.5">search</text></g></g><g id="minder_node16"><g id="node_expander13" style="cursor: pointer;" display="none"><path id="kity_path_232" fill="white" stroke="gray" d="M487.5,343.5A6,6,0,1,1,475.5,343.5A6,6,0,1,1,487.5,343.5"></path><path id="kity_path_233" fill="none" stroke="gray"></path></g><path id="node_outline14" fill="none" stroke="none" d="M492.5,332.5h278a5,5,0,0,1,5,5v12a5,5,0,0,1,-5,5h-278a5,5,0,0,1,-5,-5v-12a5,5,0,0,1,5,-5z"></path><g id="node_text14" fill="black"><text id="kity_text_121" text-rendering="inherit" font-size="12" dy=".8em" y="335.7000000476837" x="497.5">包含URL参数的一个DOMString，以‘？’开头。</text></g></g><g id="minder_node17"><g id="node_expander16" style="cursor: pointer;"><path id="kity_path_241" fill="white" stroke="gray" d="M390.5,395.5A6,6,0,1,1,378.5,395.5A6,6,0,1,1,390.5,395.5"></path><path id="kity_path_242" fill="none" stroke="gray" d="M380,395.5L389,395.5"></path></g><path id="node_outline17" fill="#ff0000" stroke="none" d="M395.5,384.5h37a5,5,0,0,1,5,5v12a5,5,0,0,1,-5,5h-37a5,5,0,0,1,-5,-5v-12a5,5,0,0,1,5,-5z" stroke-width="3"></path><g id="node_text17" fill="black"><text id="kity_text_127" text-rendering="inherit" font-size="12" dy=".8em" y="387.7000000476837" x="400.5">hash</text></g></g><g id="minder_node18"><g id="node_expander15" style="cursor: pointer;" display="none"><path id="kity_path_238" fill="white" stroke="gray" d="M477.5,395.5A6,6,0,1,1,465.5,395.5A6,6,0,1,1,477.5,395.5"></path><path id="kity_path_239" fill="none" stroke="gray"></path></g><path id="node_outline16" fill="none" stroke="none" d="M482.5,384.5h185a5,5,0,0,1,5,5v12a5,5,0,0,1,-5,5h-185a5,5,0,0,1,-5,-5v-12a5,5,0,0,1,5,-5z"></path><g id="node_text16" fill="black"><text id="kity_text_125" text-rendering="inherit" font-size="12" dy=".8em" y="387.7000000476837" x="487.5">包含URL标识符，以‘#’开头。</text></g></g><g id="minder_node19"><g id="node_expander18" style="cursor: pointer;"><path id="kity_path_247" fill="white" stroke="gray" d="M390.5,447.5A6,6,0,1,1,378.5,447.5A6,6,0,1,1,390.5,447.5"></path><path id="kity_path_248" fill="none" stroke="gray" d="M380,447.5L389,447.5"></path></g><path id="node_outline19" fill="none" stroke="none" d="M395.5,436.5h66a5,5,0,0,1,5,5v12a5,5,0,0,1,-5,5h-66a5,5,0,0,1,-5,-5v-12a5,5,0,0,1,5,-5z"></path><g id="node_text19" fill="black"><text id="kity_text_131" text-rendering="inherit" font-size="12" dy=".8em" y="439.7000000476837" x="400.5">username</text></g></g><g id="minder_node20"><g id="node_expander17" style="cursor: pointer;" display="none"><path id="kity_path_244" fill="white" stroke="gray" d="M506.5,447.5A6,6,0,1,1,494.5,447.5A6,6,0,1,1,506.5,447.5"></path><path id="kity_path_245" fill="none" stroke="gray"></path></g><path id="node_outline18" fill="none" stroke="none" d="M511.5,436.5h266a5,5,0,0,1,5,5v12a5,5,0,0,1,-5,5h-266a5,5,0,0,1,-5,-5v-12a5,5,0,0,1,5,-5z"></path><g id="node_text18" fill="black"><text id="kity_text_129" text-rendering="inherit" font-size="12" dy=".8em" y="439.7000000476837" x="516.5">包含URL中域名前的用户名的一个DOMString。</text></g></g><g id="minder_node21"><g id="node_expander20" style="cursor: pointer;"><path id="kity_path_253" fill="white" stroke="gray" d="M390.5,499.5A6,6,0,1,1,378.5,499.5A6,6,0,1,1,390.5,499.5"></path><path id="kity_path_254" fill="none" stroke="gray" d="M380,499.5L389,499.5"></path></g><path id="node_outline21" fill="none" stroke="none" d="M395.5,488.5h65a5,5,0,0,1,5,5v12a5,5,0,0,1,-5,5h-65a5,5,0,0,1,-5,-5v-12a5,5,0,0,1,5,-5z"></path><g id="node_text21" fill="black"><text id="kity_text_135" text-rendering="inherit" font-size="12" dy=".8em" y="491.7000000476837" x="400.5">password</text></g></g><g id="minder_node22"><g id="node_expander19" style="cursor: pointer;" display="none"><path id="kity_path_250" fill="white" stroke="gray" d="M505.5,499.5A6,6,0,1,1,493.5,499.5A6,6,0,1,1,505.5,499.5"></path><path id="kity_path_251" fill="none" stroke="gray"></path></g><path id="node_outline20" fill="none" stroke="none" d="M510.5,488.5h219a5,5,0,0,1,5,5v12a5,5,0,0,1,-5,5h-219a5,5,0,0,1,-5,-5v-12a5,5,0,0,1,5,-5z"></path><g id="node_text20" fill="black"><text id="kity_text_133" text-rendering="inherit" font-size="12" dy=".8em" y="491.7000000476837" x="515.5">包含域名前的密码的一个DOMString。</text></g></g><g id="minder_node23"><g id="node_expander22" style="cursor: pointer;"><path id="kity_path_259" fill="white" stroke="gray" d="M390.5,551.5A6,6,0,1,1,378.5,551.5A6,6,0,1,1,390.5,551.5"></path><path id="kity_path_260" fill="none" stroke="gray" d="M380,551.5L389,551.5"></path></g><path id="node_outline23" fill="#ff0000" stroke="none" d="M395.5,540.5h44a5,5,0,0,1,5,5v12a5,5,0,0,1,-5,5h-44a5,5,0,0,1,-5,-5v-12a5,5,0,0,1,5,-5z" stroke-width="3"></path><g id="node_text23" fill="black"><text id="kity_text_139" text-rendering="inherit" font-size="12" dy=".8em" y="543.7000000476837" x="400.5">origin</text></g></g><g id="minder_node24"><g id="node_expander21" style="cursor: pointer;" display="none"><path id="kity_path_256" fill="white" stroke="gray" d="M484.5,551.5A6,6,0,1,1,472.5,551.5A6,6,0,1,1,484.5,551.5"></path><path id="kity_path_257" fill="none" stroke="gray"></path></g><path id="node_outline22" fill="none" stroke="none" d="M489.5,540.5h255a5,5,0,0,1,5,5v12a5,5,0,0,1,-5,5h-255a5,5,0,0,1,-5,-5v-12a5,5,0,0,1,5,-5z"></path><g id="node_text22" fill="black"><text id="kity_text_137" text-rendering="inherit" font-size="12" dy=".8em" y="543.7000000476837" x="494.5">包含页面来源的域名的标准形式DOMString。</text></g></g><g id="minder_node25"><g id="node_expander23" style="cursor: pointer;" display="none"><path id="kity_path_262" fill="white" stroke="gray" d="M390.5,603.5A6,6,0,1,1,378.5,603.5A6,6,0,1,1,390.5,603.5"></path><path id="kity_path_263" fill="none" stroke="gray"></path></g><path id="node_outline24" fill="none" stroke="none" d="M395.5,592.5h655a5,5,0,0,1,5,5v12a5,5,0,0,1,-5,5h-655a5,5,0,0,1,-5,-5v-12a5,5,0,0,1,5,-5z"></path><g id="node_text24" fill="black"><text id="kity_text_141" text-rendering="inherit" font-size="12" dy=".8em" y="595.7000000476837" x="400.5">DOMString 是一个UTF-16字符串。由于JavaScript已经使用了这样的字符串，所以DOMString 直接映射到 一个String。</text></g></g><g id="minder_node26"><g id="node_expander33" style="cursor: pointer;"><path id="kity_path_292" fill="white" stroke="gray" d="M281.5,743.5A6,6,0,1,1,269.5,743.5A6,6,0,1,1,281.5,743.5"></path><path id="kity_path_293" fill="none" stroke="gray" d="M271,743.5L280,743.5"></path></g><path id="node_outline34" fill="rgb(238, 243, 246)" stroke="rgb(115, 161, 191)" d="M285.5,730.5h62a3,3,0,0,1,3,3v20a3,3,0,0,1,-3,3h-62a3,3,0,0,1,-3,-3v-20a3,3,0,0,1,3,-3z" stroke-width="1"></path><g id="node_text34" fill="black"><text id="kity_text_161" text-rendering="inherit" font-size="14" dy=".8em" y="734.4000000953674" x="302.5">方法</text></g></g><g id="minder_node27"><g id="node_expander26" style="cursor: pointer;"><path id="kity_path_271" fill="white" stroke="gray" d="M390.5,665.5A6,6,0,1,1,378.5,665.5A6,6,0,1,1,390.5,665.5"></path><path id="kity_path_272" fill="none" stroke="gray" d="M380,665.5L389,665.5"></path></g><path id="node_outline27" fill="#ff0000" stroke="none" d="M395.5,654.5h54a5,5,0,0,1,5,5v12a5,5,0,0,1,-5,5h-54a5,5,0,0,1,-5,-5v-12a5,5,0,0,1,5,-5z" stroke-width="3"></path><g id="node_text27" fill="black"><text id="kity_text_147" text-rendering="inherit" font-size="12" dy=".8em" y="657.7000000476837" x="400.5">assign()</text></g></g><g id="minder_node28"><g id="node_expander25" style="cursor: pointer;" display="none"><path id="kity_path_268" fill="white" stroke="gray" d="M494.5,665.5A6,6,0,1,1,482.5,665.5A6,6,0,1,1,494.5,665.5"></path><path id="kity_path_269" fill="none" stroke="gray"></path></g><path id="node_outline26" fill="none" stroke="none" d="M499.5,654.5h334a5,5,0,0,1,5,5v12a5,5,0,0,1,-5,5h-334a5,5,0,0,1,-5,-5v-12a5,5,0,0,1,5,-5z"></path><g id="node_text26" fill="black"><text id="kity_text_145" text-rendering="inherit" font-size="12" dy=".8em" y="657.7000000476837" x="504.5">加载给定URL的内容资源到这个Location对象所关联的对象。</text></g></g><g id="minder_node29"><g id="node_expander28" style="cursor: pointer;"><path id="kity_path_277" fill="white" stroke="gray" d="M390.5,717.5A6,6,0,1,1,378.5,717.5A6,6,0,1,1,390.5,717.5"></path><path id="kity_path_278" fill="none" stroke="gray" d="M380,717.5L389,717.5"></path></g><path id="node_outline29" fill="#ff0000" stroke="none" d="M395.5,706.5h54a5,5,0,0,1,5,5v12a5,5,0,0,1,-5,5h-54a5,5,0,0,1,-5,-5v-12a5,5,0,0,1,5,-5z" stroke-width="3"></path><g id="node_text29" fill="black"><text id="kity_text_151" text-rendering="inherit" font-size="12" dy=".8em" y="709.7000000476837" x="400.5">raload()</text></g></g><g id="minder_node30"><g id="node_expander27" style="cursor: pointer;" display="none"><path id="kity_path_274" fill="white" stroke="gray" d="M494.5,717.5A6,6,0,1,1,482.5,717.5A6,6,0,1,1,494.5,717.5"></path><path id="kity_path_275" fill="none" stroke="gray"></path></g><path id="node_outline28" fill="none" stroke="none" d="M499.5,706.5h1160a5,5,0,0,1,5,5v12a5,5,0,0,1,-5,5h-1160a5,5,0,0,1,-5,-5v-12a5,5,0,0,1,5,-5z"></path><g id="node_text28" fill="black"><text id="kity_text_149" text-rendering="inherit" font-size="12" dy=".8em" y="709.7000000476837" x="504.5">重新加载来自当前 URL的资源。他有一个特殊的可选参数，类型为 Boolean，该参数为true时会导致该方法引发的刷新一定会从服务器上加载数据。如果是 false或没有制定这个参数，浏览器可能从缓存当中加载页面。</text></g></g><g id="minder_node31"><g id="node_expander30" style="cursor: pointer;"><path id="kity_path_283" fill="white" stroke="gray" d="M390.5,769.5A6,6,0,1,1,378.5,769.5A6,6,0,1,1,390.5,769.5"></path><path id="kity_path_284" fill="none" stroke="gray" d="M380,769.5L389,769.5"></path></g><path id="node_outline31" fill="#ff0000" stroke="none" d="M395.5,758.5h60a5,5,0,0,1,5,5v12a5,5,0,0,1,-5,5h-60a5,5,0,0,1,-5,-5v-12a5,5,0,0,1,5,-5z" stroke-width="3"></path><g id="node_text31" fill="black"><text id="kity_text_155" text-rendering="inherit" font-size="12" dy=".8em" y="761.7000000476837" x="400.5">raplace()</text></g></g><g id="minder_node32"><g id="node_expander29" style="cursor: pointer;" display="none"><path id="kity_path_280" fill="white" stroke="gray" d="M500.5,769.5A6,6,0,1,1,488.5,769.5A6,6,0,1,1,500.5,769.5"></path><path id="kity_path_281" fill="none" stroke="gray"></path></g><path id="node_outline30" fill="none" stroke="none" d="M505.5,758.5h902a5,5,0,0,1,5,5v12a5,5,0,0,1,-5,5h-902a5,5,0,0,1,-5,-5v-12a5,5,0,0,1,5,-5z"></path><g id="node_text30" fill="black"><text id="kity_text_153" text-rendering="inherit" font-size="12" dy=".8em" y="761.7000000476837" x="510.5">用给定的URL替换掉当前的资源。与 assign() 方法不同的是用 replace()替换的新页面不会被保存在会话的历史 History中，这意味着用户将不能用后退按钮转到该页面。</text></g></g><g id="minder_node33"><g id="node_expander32" style="cursor: pointer;"><path id="kity_path_289" fill="white" stroke="gray" d="M390.5,821.5A6,6,0,1,1,378.5,821.5A6,6,0,1,1,390.5,821.5"></path><path id="kity_path_290" fill="none" stroke="gray" d="M380,821.5L389,821.5"></path></g><path id="node_outline33" fill="none" stroke="none" d="M395.5,810.5h64a5,5,0,0,1,5,5v12a5,5,0,0,1,-5,5h-64a5,5,0,0,1,-5,-5v-12a5,5,0,0,1,5,-5z" stroke-width="3"></path><g id="node_text33" fill="black"><text id="kity_text_159" text-rendering="inherit" font-size="12" dy=".8em" y="813.7000000476837" x="400.5">toString()</text></g></g><g id="minder_node34"><g id="node_expander31" style="cursor: pointer;" display="none"><path id="kity_path_286" fill="white" stroke="gray" d="M504.5,821.5A6,6,0,1,1,492.5,821.5A6,6,0,1,1,504.5,821.5"></path><path id="kity_path_287" fill="none" stroke="gray"></path></g><path id="node_outline32" fill="none" stroke="none" d="M509.5,810.5h633a5,5,0,0,1,5,5v12a5,5,0,0,1,-5,5h-633a5,5,0,0,1,-5,-5v-12a5,5,0,0,1,5,-5z"></path><g id="node_text32" fill="black"><text id="kity_text_157" text-rendering="inherit" font-size="12" dy=".8em" y="813.7000000476837" x="514.5">返回一个DOMString，包含整个URL。 它和读取URLUtils.href的效果相同。但是用它是不能够修改Location的值的。</text></g></g></g></g></svg>