<svg id="kity_svg_6" xmlns="http://www.w3.org/2000/svg" xmlns:xlink="http://www.w3.org/1999/xlink" version="1.1" width="788" height="748" style="background: rgb(251, 251, 251); visibility: visible;" viewBox="0 0 788 748"><defs id="kity_defs_7"><linearGradient id="kity_linearGradient_17" x1="0" y1="0" x2="0" y2="1"><stop id="kity_stop_18" offset="0" stop-color="rgb(255, 255, 255)"></stop><stop id="kity_stop_19" offset="1" stop-color="rgb(204, 204, 204)"></stop></linearGradient><marker id="kity_marker_2" orient="auto" refX="6" refY="0" viewBox="-7 -7 14 14" markerWidth="7" markerHeight="7" markerUnits="userSpaceOnUse"><path id="kity_path_3" fill="rgb(191, 147, 115)" stroke="none" d="M6,0A6,6,0,1,1,-6,0A6,6,0,1,1,6,0"></path></marker></defs><g id="kity_g_8"><g id="minder1" text-rendering="optimize-speed"><g id="minder_connect_group1"><path id="kity_path_31" fill="none" stroke="rgb(191, 147, 115)" stroke-width="1" d="M69.5,478.5A167,187,0,0,1,236.5,291.5"></path><path id="kity_path_33" fill="none" stroke="rgb(191, 147, 115)" stroke-width="1" d="M306.5,291.5C326.5,291.5,326.5,31.5,346.5,31.5"></path><path id="kity_path_35" fill="none" stroke="rgb(191, 147, 115)" stroke-width="1" d="M414.5,31.5C434.5,31.5,434.5,31.5,454.5,31.5"></path><path id="kity_path_37" fill="none" stroke="rgb(191, 147, 115)" stroke-width="1" d="M306.5,291.5C326.5,291.5,326.5,83.5,346.5,83.5"></path><path id="kity_path_39" fill="none" stroke="rgb(191, 147, 115)" stroke-width="1" d="M414.5,83.5C434.5,83.5,434.5,83.5,454.5,83.5"></path><path id="kity_path_41" fill="none" stroke="rgb(191, 147, 115)" stroke-width="1" d="M306.5,291.5C326.5,291.5,326.5,135.5,346.5,135.5"></path><path id="kity_path_43" fill="none" stroke="rgb(191, 147, 115)" stroke-width="1" d="M386.5,135.5C406.5,135.5,406.5,135.5,426.5,135.5"></path><path id="kity_path_45" fill="none" stroke="rgb(191, 147, 115)" stroke-width="1" d="M306.5,291.5C326.5,291.5,326.5,187.5,346.5,187.5"></path><path id="kity_path_47" fill="none" stroke="rgb(191, 147, 115)" stroke-width="1" d="M385.5,187.5C405.5,187.5,405.5,187.5,425.5,187.5"></path><path id="kity_path_49" fill="none" stroke="rgb(191, 147, 115)" stroke-width="1" d="M306.5,291.5C326.5,291.5,326.5,239.5,346.5,239.5"></path><path id="kity_path_51" fill="none" stroke="rgb(191, 147, 115)" stroke-width="1" d="M431.5,239.5C451.5,239.5,451.5,239.5,471.5,239.5"></path><path id="kity_path_53" fill="none" stroke="rgb(191, 147, 115)" stroke-width="1" d="M306.5,291.5C326.5,291.5,326.5,291.5,346.5,291.5"></path><path id="kity_path_55" fill="none" stroke="rgb(191, 147, 115)" stroke-width="1" d="M427.5,291.5C447.5,291.5,447.5,291.5,467.5,291.5"></path><path id="kity_path_57" fill="none" stroke="rgb(191, 147, 115)" stroke-width="1" d="M306.5,291.5C326.5,291.5,326.5,343.5,346.5,343.5"></path><path id="kity_path_59" fill="none" stroke="rgb(191, 147, 115)" stroke-width="1" d="M403.5,343.5C423.5,343.5,423.5,343.5,443.5,343.5"></path><path id="kity_path_61" fill="none" stroke="rgb(191, 147, 115)" stroke-width="1" d="M306.5,291.5C326.5,291.5,326.5,395.5,346.5,395.5"></path><path id="kity_path_63" fill="none" stroke="rgb(191, 147, 115)" stroke-width="1" d="M398.5,395.5C418.5,395.5,418.5,395.5,438.5,395.5"></path><path id="kity_path_65" fill="none" stroke="rgb(191, 147, 115)" stroke-width="1" d="M306.5,291.5C326.5,291.5,326.5,447.5,346.5,447.5"></path><path id="kity_path_67" fill="none" stroke="rgb(191, 147, 115)" stroke-width="1" d="M431.5,447.5C451.5,447.5,451.5,447.5,471.5,447.5"></path><path id="kity_path_69" fill="none" stroke="rgb(191, 147, 115)" stroke-width="1" d="M306.5,291.5C326.5,291.5,326.5,499.5,346.5,499.5"></path><path id="kity_path_71" fill="none" stroke="rgb(191, 147, 115)" stroke-width="1" d="M429.5,499.5C449.5,499.5,449.5,499.5,469.5,499.5"></path><path id="kity_path_73" fill="none" stroke="rgb(191, 147, 115)" stroke-width="1" d="M306.5,291.5C326.5,291.5,326.5,551.5,346.5,551.5"></path><path id="kity_path_75" fill="none" stroke="rgb(191, 147, 115)" stroke-width="1" d="M428.5,551.5C448.5,551.5,448.5,551.5,468.5,551.5"></path><path id="kity_path_77" fill="none" stroke="rgb(191, 147, 115)" stroke-width="1" d="M69.5,478.5A167,187,0,0,0,236.5,665.5"></path><path id="kity_path_79" fill="none" stroke="rgb(191, 147, 115)" stroke-width="1" d="M348.5,665.5C368.5,665.5,368.5,613.5,388.5,613.5"></path><path id="kity_path_81" fill="none" stroke="rgb(191, 147, 115)" stroke-width="1" d="M568.5,613.5C588.5,613.5,588.5,613.5,608.5,613.5"></path><path id="kity_path_83" fill="none" stroke="rgb(191, 147, 115)" stroke-width="1" d="M348.5,665.5C368.5,665.5,368.5,665.5,388.5,665.5"></path><path id="kity_path_85" fill="none" stroke="rgb(191, 147, 115)" stroke-width="1" d="M520.5,665.5C540.5,665.5,540.5,665.5,560.5,665.5"></path><path id="kity_path_87" fill="none" stroke="rgb(191, 147, 115)" stroke-width="1" d="M348.5,665.5C368.5,665.5,368.5,717.5,388.5,717.5"></path><path id="kity_path_89" fill="none" stroke="rgb(191, 147, 115)" stroke-width="1" d="M528.5,717.5C548.5,717.5,548.5,717.5,568.5,717.5"></path></g><g id="minder_node1"><path id="kity_path_272" fill="rgba(0, 0, 0, .25)" stroke="none" d="M28.5,456.5h114a5,5,0,0,1,5,5v44a5,5,0,0,1,-5,5h-114a5,5,0,0,1,-5,-5v-44a5,5,0,0,1,5,-5z" display="none"></path><path id="node_outline1" fill="rgb(191, 147, 115)" stroke="rgb(191, 147, 115)" d="M25.5,458.5h88a5,5,0,0,1,5,5v30a5,5,0,0,1,-5,5h-88a5,5,0,0,1,-5,-5v-30a5,5,0,0,1,5,-5z" stroke-width="3"></path><g id="node_text1" fill="white"><text id="kity_text_22" text-rendering="inherit" font-size="16" dy=".8em" y="468.09999990463257" x="44.5">screen</text></g></g><g id="kity_g_12"><path id="kity_path_13" fill="none" stroke="none" d="M44.5,478.5h0v0h0z"></path></g><g id="kity_g_14"><path id="kity_path_15" fill="none" stroke="none" d="M44.5,478.5h0v0h0z"></path><path id="kity_path_16" fill="none" stroke="none"></path></g><g id="minder_node2"><path id="kity_path_270" fill="rgba(0, 0, 0, .25)" stroke="none" d="M247.5,282.5h62a5,5,0,0,1,5,5v18a5,5,0,0,1,-5,5h-62a5,5,0,0,1,-5,-5v-18a5,5,0,0,1,5,-5z" display="none"></path><g id="node_expander23" style="cursor: pointer;"><path id="kity_path_247" fill="white" stroke="gray" d="M237.5,291.5A6,6,0,1,1,225.5,291.5A6,6,0,1,1,237.5,291.5"></path><path id="kity_path_248" fill="none" stroke="gray" d="M227,291.5L236,291.5"></path></g><path id="node_outline24" fill="rgb(246, 242, 238)" stroke="rgb(191, 147, 115)" d="M241.5,278.5h62a3,3,0,0,1,3,3v20a3,3,0,0,1,-3,3h-62a3,3,0,0,1,-3,-3v-20a3,3,0,0,1,3,-3z" stroke-width="1"></path><g id="node_text24" fill="black"><text id="kity_text_135" text-rendering="inherit" font-size="14" dy=".8em" y="282.40000009536743" x="258.5">属性</text></g></g><g id="minder_node3"><g id="node_expander2" style="cursor: pointer;"><path id="kity_path_184" fill="white" stroke="gray" d="M346.5,31.5A6,6,0,1,1,334.5,31.5A6,6,0,1,1,346.5,31.5"></path><path id="kity_path_185" fill="none" stroke="gray" d="M336,31.5L345,31.5"></path></g><path id="node_outline3" fill="#ff0000" stroke="none" d="M351.5,20.5h58a5,5,0,0,1,5,5v12a5,5,0,0,1,-5,5h-58a5,5,0,0,1,-5,-5v-12a5,5,0,0,1,5,-5z"></path><g id="node_text3" fill="black"><text id="kity_text_93" text-rendering="inherit" font-size="12" dy=".8em" y="23.700000047683716" x="356.5">availTop</text></g></g><g id="minder_node4"><g id="node_expander1" style="cursor: pointer;" display="none"><path id="kity_path_181" fill="white" stroke="gray" d="M454.5,31.5A6,6,0,1,1,442.5,31.5A6,6,0,1,1,454.5,31.5"></path><path id="kity_path_182" fill="none" stroke="gray"></path></g><path id="node_outline2" fill="none" stroke="none" d="M459.5,20.5h154a5,5,0,0,1,5,5v12a5,5,0,0,1,-5,5h-154a5,5,0,0,1,-5,-5v-12a5,5,0,0,1,5,-5z"></path><g id="node_text2" fill="black"><text id="kity_text_91" text-rendering="inherit" font-size="12" dy=".8em" y="23.700000047683716" x="464.5">返回屏幕上边有效的距离。</text></g></g><g id="minder_node5"><g id="node_expander4" style="cursor: pointer;"><path id="kity_path_190" fill="white" stroke="gray" d="M346.5,83.5A6,6,0,1,1,334.5,83.5A6,6,0,1,1,346.5,83.5"></path><path id="kity_path_191" fill="none" stroke="gray" d="M336,83.5L345,83.5"></path></g><path id="node_outline5" fill="#ff0000" stroke="none" d="M351.5,72.5h58a5,5,0,0,1,5,5v12a5,5,0,0,1,-5,5h-58a5,5,0,0,1,-5,-5v-12a5,5,0,0,1,5,-5z"></path><g id="node_text5" fill="black"><text id="kity_text_97" text-rendering="inherit" font-size="12" dy=".8em" y="75.70000004768372" x="356.5">availLeft</text></g></g><g id="minder_node6"><g id="node_expander3" style="cursor: pointer;" display="none"><path id="kity_path_187" fill="white" stroke="gray" d="M454.5,83.5A6,6,0,1,1,442.5,83.5A6,6,0,1,1,454.5,83.5"></path><path id="kity_path_188" fill="none" stroke="gray"></path></g><path id="node_outline4" fill="none" stroke="none" d="M459.5,72.5h154a5,5,0,0,1,5,5v12a5,5,0,0,1,-5,5h-154a5,5,0,0,1,-5,-5v-12a5,5,0,0,1,5,-5z"></path><g id="node_text4" fill="black"><text id="kity_text_95" text-rendering="inherit" font-size="12" dy=".8em" y="75.70000004768372" x="464.5">返回屏幕左边有效的距离。</text></g></g><g id="minder_node7"><g id="node_expander6" style="cursor: pointer;"><path id="kity_path_196" fill="white" stroke="gray" d="M346.5,135.5A6,6,0,1,1,334.5,135.5A6,6,0,1,1,346.5,135.5"></path><path id="kity_path_197" fill="none" stroke="gray" d="M336,135.5L345,135.5"></path></g><path id="node_outline7" fill="none" stroke="none" d="M351.5,124.5h30a5,5,0,0,1,5,5v12a5,5,0,0,1,-5,5h-30a5,5,0,0,1,-5,-5v-12a5,5,0,0,1,5,-5z"></path><g id="node_text7" fill="black"><text id="kity_text_101" text-rendering="inherit" font-size="12" dy=".8em" y="127.70000004768372" x="356.5">top</text></g></g><g id="minder_node8"><g id="node_expander5" style="cursor: pointer;" display="none"><path id="kity_path_193" fill="white" stroke="gray" d="M426.5,135.5A6,6,0,1,1,414.5,135.5A6,6,0,1,1,426.5,135.5"></path><path id="kity_path_194" fill="none" stroke="gray"></path></g><path id="node_outline6" fill="none" stroke="none" d="M431.5,124.5h154a5,5,0,0,1,5,5v12a5,5,0,0,1,-5,5h-154a5,5,0,0,1,-5,-5v-12a5,5,0,0,1,5,-5z"></path><g id="node_text6" fill="black"><text id="kity_text_99" text-rendering="inherit" font-size="12" dy=".8em" y="127.70000004768372" x="436.5">返回距离屏幕顶部的距离。</text></g></g><g id="minder_node9"><g id="node_expander8" style="cursor: pointer;"><path id="kity_path_202" fill="white" stroke="gray" d="M346.5,187.5A6,6,0,1,1,334.5,187.5A6,6,0,1,1,346.5,187.5"></path><path id="kity_path_203" fill="none" stroke="gray" d="M336,187.5L345,187.5"></path></g><path id="node_outline9" fill="none" stroke="none" d="M351.5,176.5h29a5,5,0,0,1,5,5v12a5,5,0,0,1,-5,5h-29a5,5,0,0,1,-5,-5v-12a5,5,0,0,1,5,-5z"></path><g id="node_text9" fill="black"><text id="kity_text_105" text-rendering="inherit" font-size="12" dy=".8em" y="179.70000004768372" x="356.5">left</text></g></g><g id="minder_node10"><g id="node_expander7" style="cursor: pointer;" display="none"><path id="kity_path_199" fill="white" stroke="gray" d="M425.5,187.5A6,6,0,1,1,413.5,187.5A6,6,0,1,1,425.5,187.5"></path><path id="kity_path_200" fill="none" stroke="gray"></path></g><path id="node_outline8" fill="none" stroke="none" d="M430.5,176.5h154a5,5,0,0,1,5,5v12a5,5,0,0,1,-5,5h-154a5,5,0,0,1,-5,-5v-12a5,5,0,0,1,5,-5z"></path><g id="node_text8" fill="black"><text id="kity_text_103" text-rendering="inherit" font-size="12" dy=".8em" y="179.70000004768372" x="435.5">返回距离屏幕左部的距离。</text></g></g><g id="minder_node11"><g id="node_expander10" style="cursor: pointer;"><path id="kity_path_208" fill="white" stroke="gray" d="M346.5,239.5A6,6,0,1,1,334.5,239.5A6,6,0,1,1,346.5,239.5"></path><path id="kity_path_209" fill="none" stroke="gray" d="M336,239.5L345,239.5"></path></g><path id="node_outline11" fill="#ff0000" stroke="none" d="M351.5,228.5h75a5,5,0,0,1,5,5v12a5,5,0,0,1,-5,5h-75a5,5,0,0,1,-5,-5v-12a5,5,0,0,1,5,-5z"></path><g id="node_text11" fill="black"><text id="kity_text_109" text-rendering="inherit" font-size="12" dy=".8em" y="231.70000004768372" x="356.5">availHeight</text></g></g><g id="minder_node12"><g id="node_expander9" style="cursor: pointer;" display="none"><path id="kity_path_205" fill="white" stroke="gray" d="M471.5,239.5A6,6,0,1,1,459.5,239.5A6,6,0,1,1,471.5,239.5"></path><path id="kity_path_206" fill="none" stroke="gray"></path></g><path id="node_outline10" fill="none" stroke="none" d="M476.5,228.5h130a5,5,0,0,1,5,5v12a5,5,0,0,1,-5,5h-130a5,5,0,0,1,-5,-5v-12a5,5,0,0,1,5,-5z"></path><g id="node_text10" fill="black"><text id="kity_text_107" text-rendering="inherit" font-size="12" dy=".8em" y="231.70000004768372" x="481.5">返回屏幕有效的高度。</text></g></g><g id="minder_node13"><g id="node_expander12" style="cursor: pointer;"><path id="kity_path_214" fill="white" stroke="gray" d="M346.5,291.5A6,6,0,1,1,334.5,291.5A6,6,0,1,1,346.5,291.5"></path><path id="kity_path_215" fill="none" stroke="gray" d="M336,291.5L345,291.5"></path></g><path id="node_outline13" fill="#ff0000" stroke="none" d="M351.5,280.5h71a5,5,0,0,1,5,5v12a5,5,0,0,1,-5,5h-71a5,5,0,0,1,-5,-5v-12a5,5,0,0,1,5,-5z"></path><g id="node_text13" fill="black"><text id="kity_text_113" text-rendering="inherit" font-size="12" dy=".8em" y="283.7000000476837" x="356.5">availWidth</text></g></g><g id="minder_node14"><g id="node_expander11" style="cursor: pointer;" display="none"><path id="kity_path_211" fill="white" stroke="gray" d="M467.5,291.5A6,6,0,1,1,455.5,291.5A6,6,0,1,1,467.5,291.5"></path><path id="kity_path_212" fill="none" stroke="gray"></path></g><path id="node_outline12" fill="none" stroke="none" d="M472.5,280.5h130a5,5,0,0,1,5,5v12a5,5,0,0,1,-5,5h-130a5,5,0,0,1,-5,-5v-12a5,5,0,0,1,5,-5z"></path><g id="node_text12" fill="black"><text id="kity_text_111" text-rendering="inherit" font-size="12" dy=".8em" y="283.7000000476837" x="477.5">返回屏幕有效的宽度。</text></g></g><g id="minder_node15"><g id="node_expander14" style="cursor: pointer;"><path id="kity_path_220" fill="white" stroke="gray" d="M346.5,343.5A6,6,0,1,1,334.5,343.5A6,6,0,1,1,346.5,343.5"></path><path id="kity_path_221" fill="none" stroke="gray" d="M336,343.5L345,343.5"></path></g><path id="node_outline15" fill="none" stroke="none" d="M351.5,332.5h47a5,5,0,0,1,5,5v12a5,5,0,0,1,-5,5h-47a5,5,0,0,1,-5,-5v-12a5,5,0,0,1,5,-5z"></path><g id="node_text15" fill="black"><text id="kity_text_117" text-rendering="inherit" font-size="12" dy=".8em" y="335.7000000476837" x="356.5">height</text></g></g><g id="minder_node16"><g id="node_expander13" style="cursor: pointer;" display="none"><path id="kity_path_217" fill="white" stroke="gray" d="M443.5,343.5A6,6,0,1,1,431.5,343.5A6,6,0,1,1,443.5,343.5"></path><path id="kity_path_218" fill="none" stroke="gray"></path></g><path id="node_outline14" fill="none" stroke="none" d="M448.5,332.5h214a5,5,0,0,1,5,5v12a5,5,0,0,1,-5,5h-214a5,5,0,0,1,-5,-5v-12a5,5,0,0,1,5,-5z"></path><g id="node_text14" fill="black"><text id="kity_text_115" text-rendering="inherit" font-size="12" dy=".8em" y="335.7000000476837" x="453.5">返回屏幕的高度（包括导航和底部）。</text></g></g><g id="minder_node17"><g id="node_expander16" style="cursor: pointer;"><path id="kity_path_226" fill="white" stroke="gray" d="M346.5,395.5A6,6,0,1,1,334.5,395.5A6,6,0,1,1,346.5,395.5"></path><path id="kity_path_227" fill="none" stroke="gray" d="M336,395.5L345,395.5"></path></g><path id="node_outline17" fill="none" stroke="none" d="M351.5,384.5h42a5,5,0,0,1,5,5v12a5,5,0,0,1,-5,5h-42a5,5,0,0,1,-5,-5v-12a5,5,0,0,1,5,-5z"></path><g id="node_text17" fill="black"><text id="kity_text_121" text-rendering="inherit" font-size="12" dy=".8em" y="387.7000000476837" x="356.5">width</text></g></g><g id="minder_node18"><g id="node_expander15" style="cursor: pointer;" display="none"><path id="kity_path_223" fill="white" stroke="gray" d="M438.5,395.5A6,6,0,1,1,426.5,395.5A6,6,0,1,1,438.5,395.5"></path><path id="kity_path_224" fill="none" stroke="gray"></path></g><path id="node_outline16" fill="none" stroke="none" d="M443.5,384.5h190a5,5,0,0,1,5,5v12a5,5,0,0,1,-5,5h-190a5,5,0,0,1,-5,-5v-12a5,5,0,0,1,5,-5z"></path><g id="node_text16" fill="black"><text id="kity_text_119" text-rendering="inherit" font-size="12" dy=".8em" y="387.7000000476837" x="448.5">返回屏幕的宽度（包括侧边栏）。</text></g></g><g id="minder_node19"><g id="node_expander18" style="cursor: pointer;"><path id="kity_path_232" fill="white" stroke="gray" d="M346.5,447.5A6,6,0,1,1,334.5,447.5A6,6,0,1,1,346.5,447.5"></path><path id="kity_path_233" fill="none" stroke="gray" d="M336,447.5L345,447.5"></path></g><path id="node_outline19" fill="#ff0000" stroke="none" d="M351.5,436.5h75a5,5,0,0,1,5,5v12a5,5,0,0,1,-5,5h-75a5,5,0,0,1,-5,-5v-12a5,5,0,0,1,5,-5z"></path><g id="node_text19" fill="black"><text id="kity_text_125" text-rendering="inherit" font-size="12" dy=".8em" y="439.7000000476837" x="356.5">colorDepth</text></g></g><g id="minder_node20"><g id="node_expander17" style="cursor: pointer;" display="none"><path id="kity_path_229" fill="white" stroke="gray" d="M471.5,447.5A6,6,0,1,1,459.5,447.5A6,6,0,1,1,471.5,447.5"></path><path id="kity_path_230" fill="none" stroke="gray"></path></g><path id="node_outline18" fill="none" stroke="none" d="M476.5,436.5h130a5,5,0,0,1,5,5v12a5,5,0,0,1,-5,5h-130a5,5,0,0,1,-5,-5v-12a5,5,0,0,1,5,-5z"></path><g id="node_text18" fill="black"><text id="kity_text_123" text-rendering="inherit" font-size="12" dy=".8em" y="439.7000000476837" x="481.5">返回屏幕颜色的深度。</text></g></g><g id="minder_node21"><g id="node_expander20" style="cursor: pointer;"><path id="kity_path_238" fill="white" stroke="gray" d="M346.5,499.5A6,6,0,1,1,334.5,499.5A6,6,0,1,1,346.5,499.5"></path><path id="kity_path_239" fill="none" stroke="gray" d="M336,499.5L345,499.5"></path></g><path id="node_outline21" fill="#ff0000" stroke="none" d="M351.5,488.5h73a5,5,0,0,1,5,5v12a5,5,0,0,1,-5,5h-73a5,5,0,0,1,-5,-5v-12a5,5,0,0,1,5,-5z"></path><g id="node_text21" fill="black"><text id="kity_text_129" text-rendering="inherit" font-size="12" dy=".8em" y="491.7000000476837" x="356.5">orientation</text></g></g><g id="minder_node22"><g id="node_expander19" style="cursor: pointer;" display="none"><path id="kity_path_235" fill="white" stroke="gray" d="M469.5,499.5A6,6,0,1,1,457.5,499.5A6,6,0,1,1,469.5,499.5"></path><path id="kity_path_236" fill="none" stroke="gray"></path></g><path id="node_outline20" fill="none" stroke="none" d="M474.5,488.5h106a5,5,0,0,1,5,5v12a5,5,0,0,1,-5,5h-106a5,5,0,0,1,-5,-5v-12a5,5,0,0,1,5,-5z"></path><g id="node_text20" fill="black"><text id="kity_text_127" text-rendering="inherit" font-size="12" dy=".8em" y="491.7000000476837" x="479.5">返回屏幕的方向。</text></g></g><g id="minder_node23"><g id="node_expander22" style="cursor: pointer;"><path id="kity_path_244" fill="white" stroke="gray" d="M346.5,551.5A6,6,0,1,1,334.5,551.5A6,6,0,1,1,346.5,551.5"></path><path id="kity_path_245" fill="none" stroke="gray" d="M336,551.5L345,551.5"></path></g><path id="node_outline23" fill="#ff0000" stroke="none" d="M351.5,540.5h72a5,5,0,0,1,5,5v12a5,5,0,0,1,-5,5h-72a5,5,0,0,1,-5,-5v-12a5,5,0,0,1,5,-5z"></path><g id="node_text23" fill="black"><text id="kity_text_133" text-rendering="inherit" font-size="12" dy=".8em" y="543.7000000476837" x="356.5">pixelDepth</text></g></g><g id="minder_node24"><g id="node_expander21" style="cursor: pointer;" display="none"><path id="kity_path_241" fill="white" stroke="gray" d="M468.5,551.5A6,6,0,1,1,456.5,551.5A6,6,0,1,1,468.5,551.5"></path><path id="kity_path_242" fill="none" stroke="gray"></path></g><path id="node_outline22" fill="none" stroke="none" d="M473.5,540.5h118a5,5,0,0,1,5,5v12a5,5,0,0,1,-5,5h-118a5,5,0,0,1,-5,-5v-12a5,5,0,0,1,5,-5z"></path><g id="node_text22" fill="black"><text id="kity_text_131" text-rendering="inherit" font-size="12" dy=".8em" y="543.7000000476837" x="478.5">返回屏幕的位深度。</text></g></g><g id="minder_node25"><path id="kity_path_271" fill="rgba(0, 0, 0, .25)" stroke="none" d="M247.5,656.5h110a5,5,0,0,1,5,5v18a5,5,0,0,1,-5,5h-110a5,5,0,0,1,-5,-5v-18a5,5,0,0,1,5,-5z" display="none"></path><g id="node_expander30" style="cursor: pointer;"><path id="kity_path_268" fill="white" stroke="gray" d="M237.5,665.5A6,6,0,1,1,225.5,665.5A6,6,0,1,1,237.5,665.5"></path><path id="kity_path_269" fill="none" stroke="gray" d="M227,665.5L236,665.5"></path></g><path id="node_outline31" fill="rgb(246, 242, 238)" stroke="rgb(191, 147, 115)" d="M241.5,652.5h104a3,3,0,0,1,3,3v20a3,3,0,0,1,-3,3h-104a3,3,0,0,1,-3,-3v-20a3,3,0,0,1,3,-3z" stroke-width="1"></path><g id="node_text31" fill="black"><text id="kity_text_149" text-rendering="inherit" font-size="14" dy=".8em" y="656.4000000953674" x="258.5">方法及事件</text></g></g><g id="minder_node26"><g id="node_expander25" style="cursor: pointer;"><path id="kity_path_253" fill="white" stroke="gray" d="M388.5,613.5A6,6,0,1,1,376.5,613.5A6,6,0,1,1,388.5,613.5"></path><path id="kity_path_254" fill="none" stroke="gray" d="M378,613.5L387,613.5"></path></g><path id="node_outline26" fill="#ff0000" stroke="none" d="M393.5,602.5h170a5,5,0,0,1,5,5v12a5,5,0,0,1,-5,5h-170a5,5,0,0,1,-5,-5v-12a5,5,0,0,1,5,-5z"></path><g id="node_text26" fill="black"><text id="kity_text_139" text-rendering="inherit" font-size="12" dy=".8em" y="605.7000000476837" x="398.5">lockOrientation(orientation)</text></g></g><g id="minder_node27"><g id="node_expander24" style="cursor: pointer;" display="none"><path id="kity_path_250" fill="white" stroke="gray" d="M608.5,613.5A6,6,0,1,1,596.5,613.5A6,6,0,1,1,608.5,613.5"></path><path id="kity_path_251" fill="none" stroke="gray"></path></g><path id="node_outline25" fill="none" stroke="none" d="M613.5,602.5h130a5,5,0,0,1,5,5v12a5,5,0,0,1,-5,5h-130a5,5,0,0,1,-5,-5v-12a5,5,0,0,1,5,-5z"></path><g id="node_text25" fill="black"><text id="kity_text_137" text-rendering="inherit" font-size="12" dy=".8em" y="605.7000000476837" x="618.5">锁定屏幕在某个方向。</text></g></g><g id="minder_node28"><g id="node_expander27" style="cursor: pointer;"><path id="kity_path_259" fill="white" stroke="gray" d="M388.5,665.5A6,6,0,1,1,376.5,665.5A6,6,0,1,1,388.5,665.5"></path><path id="kity_path_260" fill="none" stroke="gray" d="M378,665.5L387,665.5"></path></g><path id="node_outline28" fill="#ff0000" stroke="none" d="M393.5,654.5h122a5,5,0,0,1,5,5v12a5,5,0,0,1,-5,5h-122a5,5,0,0,1,-5,-5v-12a5,5,0,0,1,5,-5z"></path><g id="node_text28" fill="black"><text id="kity_text_143" text-rendering="inherit" font-size="12" dy=".8em" y="657.7000000476837" x="398.5">unlockOrientation()</text></g></g><g id="minder_node29"><g id="node_expander26" style="cursor: pointer;" display="none"><path id="kity_path_256" fill="white" stroke="gray" d="M560.5,665.5A6,6,0,1,1,548.5,665.5A6,6,0,1,1,560.5,665.5"></path><path id="kity_path_257" fill="none" stroke="gray"></path></g><path id="node_outline27" fill="none" stroke="none" d="M565.5,654.5h118a5,5,0,0,1,5,5v12a5,5,0,0,1,-5,5h-118a5,5,0,0,1,-5,-5v-12a5,5,0,0,1,5,-5z"></path><g id="node_text27" fill="black"><text id="kity_text_141" text-rendering="inherit" font-size="12" dy=".8em" y="657.7000000476837" x="570.5">解锁屏幕方向锁定。</text></g></g><g id="minder_node30"><g id="node_expander29" style="cursor: pointer;"><path id="kity_path_265" fill="white" stroke="gray" d="M388.5,717.5A6,6,0,1,1,376.5,717.5A6,6,0,1,1,388.5,717.5"></path><path id="kity_path_266" fill="none" stroke="gray" d="M378,717.5L387,717.5"></path></g><path id="node_outline30" fill="#ff0000" stroke="none" d="M393.5,706.5h130a5,5,0,0,1,5,5v12a5,5,0,0,1,-5,5h-130a5,5,0,0,1,-5,-5v-12a5,5,0,0,1,5,-5z"></path><g id="node_text30" fill="black"><text id="kity_text_147" text-rendering="inherit" font-size="12" dy=".8em" y="709.7000000476837" x="398.5">onorientationchange</text></g></g><g id="minder_node31"><g id="node_expander28" style="cursor: pointer;" display="none"><path id="kity_path_262" fill="white" stroke="gray" d="M568.5,717.5A6,6,0,1,1,556.5,717.5A6,6,0,1,1,568.5,717.5"></path><path id="kity_path_263" fill="none" stroke="gray"></path></g><path id="node_outline29" fill="none" stroke="none" d="M573.5,706.5h190a5,5,0,0,1,5,5v12a5,5,0,0,1,-5,5h-190a5,5,0,0,1,-5,-5v-12a5,5,0,0,1,5,-5z"></path><g id="node_text29" fill="black"><text id="kity_text_145" text-rendering="inherit" font-size="12" dy=".8em" y="709.7000000476837" x="578.5">当屏幕方向改变是触发。（事件）</text></g></g></g></g></svg>